<svg width="235" height="235" viewBox="0 0 235 235" fill="none" xmlns="http://www.w3.org/2000/svg">
<g filter="url(#filter0_d)">
<path fill-rule="evenodd" clip-rule="evenodd" d="M171.32 68.0774C169.793 67.1959 168.081 66.4768 166.247 65.8279C164.432 56.1561 158.597 47.2949 149.426 42C140.255 36.7051 129.662 36.0816 120.38 39.3462C118.9 38.0819 117.421 36.9586 115.895 36.0773C100.614 27.255 81.0043 32.5093 72.1818 47.7902C66.1364 58.2612 66.5454 71.1892 73.0984 81.248L51.0678 119.293C49.4788 122.039 49.0548 125.239 49.8739 128.304C50.6939 131.372 52.6568 133.932 55.4051 135.519L115.456 170.189C121.125 173.462 128.397 171.513 131.67 165.845L153.68 127.723C165.64 128.336 177.008 122.227 183.033 111.79C191.855 96.5091 186.601 76.8998 171.32 68.0774Z" fill="white"/>
</g>
<path d="M93.8735 80.2195C94.6681 78.8432 94.149 77.0587 92.7129 76.2295C91.2768 75.4004 89.4718 75.8431 88.6772 77.2194C84.9025 83.7574 87.2449 97.0793 87.5227 98.5786C87.6925 99.4742 88.2586 100.216 89.0096 100.65C89.588 100.984 90.2784 101.136 90.9818 101.036C92.5946 100.803 93.6597 99.3273 93.3664 97.7378C92.4591 92.8764 91.7932 83.8228 93.8735 80.2195Z" fill="#E2D5E4"/>
<path d="M148.138 108.229C146.702 107.4 144.897 107.843 144.102 109.219C142.029 112.81 133.851 116.767 129.182 118.42C127.661 118.958 126.917 120.62 127.523 122.133C127.786 122.79 128.263 123.312 128.844 123.648C129.594 124.081 130.518 124.199 131.378 123.899C132.816 123.39 145.524 118.758 149.299 112.219C150.094 110.843 149.574 109.059 148.138 108.229Z" fill="#E2D5E4"/>
<path d="M120.426 92.2295C118.99 91.4004 117.185 91.8431 116.39 93.2194L107.765 108.158C106.971 109.534 107.49 111.319 108.926 112.148C110.362 112.977 112.167 112.534 112.961 111.158L121.586 96.2194C122.38 94.843 121.861 93.0585 120.426 92.2295Z" fill="#E2D5E4"/>
<defs>
<filter id="filter0_d" x="0" y="0" width="234.851" height="234.851" filterUnits="userSpaceOnUse" color-interpolation-filters="sRGB">
<feFlood flood-opacity="0" result="BackgroundImageFix"/>
<feColorMatrix in="SourceAlpha" type="matrix" values="0 0 0 0 0 0 0 0 0 0 0 0 0 0 0 0 0 0 127 0"/>
<feOffset dy="20"/>
<feGaussianBlur stdDeviation="15"/>
<feColorMatrix type="matrix" values="0 0 0 0 0.886275 0 0 0 0 0.835294 0 0 0 0 0.894118 0 0 0 1 0"/>
<feBlend mode="normal" in2="BackgroundImageFix" result="effect1_dropShadow"/>
<feBlend mode="normal" in="SourceGraphic" in2="effect1_dropShadow" result="shape"/>
</filter>
</defs>
</svg>
