<svg width="27" height="27" viewBox="0 0 27 27" fill="none" xmlns="http://www.w3.org/2000/svg">
<mask id="path-1-inside-1" fill="white">
<path d="M24.3347 0.292929C24.7252 -0.0975955 25.3584 -0.0975958 25.7489 0.292928C26.1394 0.683453 26.1394 1.31662 25.7489 1.70714L1.70726 25.7488C1.31673 26.1393 0.683566 26.1393 0.293042 25.7488C-0.0974821 25.3582 -0.0974821 24.7251 0.293042 24.3346L24.3347 0.292929Z"/>
<path d="M25.7487 24.3345C26.1393 24.725 26.1393 25.3582 25.7487 25.7487C25.3582 26.1393 24.725 26.1393 24.3345 25.7487L0.292893 1.70711C-0.0976311 1.31658 -0.097631 0.683417 0.292893 0.292893C0.683418 -0.0976311 1.31658 -0.097631 1.70711 0.292893L25.7487 24.3345Z"/>
</mask>
<path d="M24.3347 0.292929C24.7252 -0.0975955 25.3584 -0.0975958 25.7489 0.292928C26.1394 0.683453 26.1394 1.31662 25.7489 1.70714L1.70726 25.7488C1.31673 26.1393 0.683566 26.1393 0.293042 25.7488C-0.0974821 25.3582 -0.0974821 24.7251 0.293042 24.3346L24.3347 0.292929Z" fill="#DF2527"/>
<path d="M25.7487 24.3345C26.1393 24.725 26.1393 25.3582 25.7487 25.7487C25.3582 26.1393 24.725 26.1393 24.3345 25.7487L0.292893 1.70711C-0.0976311 1.31658 -0.097631 0.683417 0.292893 0.292893C0.683418 -0.0976311 1.31658 -0.097631 1.70711 0.292893L25.7487 24.3345Z" fill="#DF2527"/>
<path d="M0.293042 24.3346L-0.414065 23.6275L0.293042 24.3346ZM1.70726 25.7488L1.00015 25.0417L1.70726 25.7488ZM25.7489 1.70714L26.456 2.41425L25.7489 1.70714ZM24.3347 0.292929L25.0418 1.00004L24.3347 0.292929ZM1.70711 0.292893L1 1L1.70711 0.292893ZM0.292893 1.70711L1 1L0.292893 1.70711ZM24.3345 25.7487L23.6274 26.4558L24.3345 25.7487ZM25.7487 24.3345L26.4558 23.6274L25.7487 24.3345ZM25.0418 1.00004L1.00015 25.0417L2.41436 26.4559L26.456 2.41425L25.0418 1.00004ZM1.00015 25.0417L25.0418 1.00004L23.6276 -0.414178L-0.414065 23.6275L1.00015 25.0417ZM1.00015 25.0417V25.0417L-0.414065 23.6275C-1.19511 24.4085 -1.19511 25.6748 -0.414065 26.4559L1.00015 25.0417ZM1.00015 25.0417H1.00015L-0.414065 26.4559C0.366984 27.2369 1.63331 27.2369 2.41436 26.4559L1.00015 25.0417ZM25.0418 1.00004V1.00004L26.456 2.41425C27.237 1.6332 27.237 0.36687 26.456 -0.414178L25.0418 1.00004ZM26.456 -0.414178C25.6749 -1.19523 24.4086 -1.19523 23.6276 -0.414178L25.0418 1.00004L25.0418 1.00004L26.456 -0.414178ZM25.0416 25.0416L1 1L-0.414214 2.41421L23.6274 26.4558L25.0416 25.0416ZM1 1L25.0416 25.0416L26.4558 23.6274L2.41421 -0.414213L1 1ZM1 1L2.41421 -0.414213C1.63317 -1.19526 0.366835 -1.19526 -0.414213 -0.414214L1 1ZM1 1L-0.414213 -0.414214C-1.19526 0.366835 -1.19526 1.63316 -0.414214 2.41421L1 1ZM25.0416 25.0416L23.6274 26.4558C24.4085 27.2369 25.6748 27.2369 26.4558 26.4558L25.0416 25.0416ZM26.4558 26.4558C27.2369 25.6748 27.2369 24.4085 26.4558 23.6274L25.0416 25.0416L26.4558 26.4558Z" fill="#DF2527" mask="url(#path-1-inside-1)"/>
</svg>
