<svg width="27" height="27" viewBox="0 0 27 27" fill="none" xmlns="http://www.w3.org/2000/svg">
<path d="M24.3347 0.292929C24.7252 -0.0975955 25.3584 -0.0975958 25.7489 0.292928C26.1394 0.683453 26.1394 1.31662 25.7489 1.70714L1.70726 25.7488C1.31673 26.1393 0.683566 26.1393 0.293042 25.7488C-0.0974821 25.3582 -0.0974821 24.7251 0.293042 24.3346L24.3347 0.292929Z" fill="white"/>
<path d="M25.7487 24.3345C26.1393 24.725 26.1393 25.3582 25.7487 25.7487C25.3582 26.1393 24.725 26.1393 24.3345 25.7487L0.292893 1.70711C-0.0976311 1.31658 -0.097631 0.683417 0.292893 0.292893C0.683418 -0.0976311 1.31658 -0.097631 1.70711 0.292893L25.7487 24.3345Z" fill="white"/>
</svg>
