<svg width="10" height="17" viewBox="0 0 10 17" fill="none" xmlns="http://www.w3.org/2000/svg">
<path d="M8.99791 0.00353713L6.75527 0C4.23574 0 2.60751 1.64211 2.60751 4.18372V6.1127H0.352633C0.157785 6.1127 0 6.26798 0 6.45952V9.25438C0 9.44592 0.157965 9.60102 0.352633 9.60102H2.60751V16.6534C2.60751 16.8449 2.76529 17 2.96014 17H5.90211C6.09696 17 6.25474 16.8447 6.25474 16.6534V9.60102H8.89122C9.08607 9.60102 9.24385 9.44592 9.24385 9.25438L9.24493 6.45952C9.24493 6.36755 9.20769 6.27948 9.14166 6.21439C9.07563 6.14931 8.98567 6.1127 8.89212 6.1127H6.25474V4.47748C6.25474 3.69153 6.44527 3.29254 7.4868 3.29254L8.99755 3.29201C9.19221 3.29201 9.35 3.13673 9.35 2.94537V0.350176C9.35 0.158994 9.1924 0.00389085 8.99791 0.00353713Z" fill="#ffffff"/>
</svg>
