<svg width="16" height="16" viewBox="0 0 16 16" fill="none" xmlns="http://www.w3.org/2000/svg">
<path fill-rule="evenodd" clip-rule="evenodd" d="M11.6689 0H4.33105C1.94287 0 0 1.94287 0 4.33105V11.6691C0 14.0571 1.94287 16 4.33105 16H11.6691C14.0571 16 16 14.0571 16 11.6691V4.33105C16 1.94287 14.0571 0 11.6689 0ZM8 12.3749C5.58765 12.3749 3.62512 10.4124 3.62512 8C3.62512 5.58765 5.58765 3.62512 8 3.62512C10.4124 3.62512 12.3749 5.58765 12.3749 8C12.3749 10.4124 10.4124 12.3749 8 12.3749ZM11.1868 3.36414C11.1868 4.07703 11.7666 4.65686 12.4795 4.65686C13.1924 4.65686 13.7723 4.07703 13.7723 3.36414C13.7723 2.65125 13.1924 2.07129 12.4795 2.07129C11.7666 2.07129 11.1868 2.65125 11.1868 3.36414Z" fill="#fff"/>
</svg>
