<svg width="81" height="53" viewBox="0 0 81 53" fill="none" xmlns="http://www.w3.org/2000/svg">
<path fill-rule="evenodd" clip-rule="evenodd" d="M58.3062 7.22795L25.4281 7.20082C15.9628 7.20082 12.672 4.60267 11.51 2.79378C10.8836 1.81697 9.95772 1.66179 9.09802 2.34488C6.4775 4.43083 2 9.03876 2 16.8718C2 30.3438 12.2346 35.9256 22.6933 35.9256L55.5733 35.9537C65.0363 35.9537 68.3285 38.5509 69.4904 40.3603C70.1174 41.3361 71.0427 41.4918 71.9015 40.8082C74.522 38.7228 79 34.1134 79 26.2809C79 12.8094 68.7664 7.22795 58.3062 7.22795Z" fill="#DF2527"/>
<path d="M12.3514 2.25331C13.2462 3.64629 16.1135 6.20082 25.4281 6.20082H25.4289L58.3062 6.22795L58.307 6.22795L12.3514 2.25331ZM12.3514 2.25331C11.933 1.60115 11.3319 1.10082 10.5696 0.962851C9.80175 0.823892 9.07133 1.08885 8.47592 1.56195L8.47523 1.56249M12.3514 2.25331L8.47523 1.56249M8.47523 1.56249C5.73677 3.74232 1 8.60779 1 16.8718M8.47523 1.56249L1 16.8718M1 16.8718C1 23.8908 3.6811 28.9507 7.80157 32.2329M1 16.8718L7.80157 32.2329M7.80157 32.2329C11.889 35.4888 17.3016 36.9255 22.6925 36.9256L7.80157 32.2329ZM72.5243 41.5906L71.9015 40.8082L22.6933 36.9256L55.5725 36.9537H55.5733C64.8857 36.9537 67.7543 39.5074 68.649 40.9007L68.6491 40.9008C69.0677 41.5524 69.6687 42.0527 70.431 42.1906C71.1988 42.3295 71.9291 42.0644 72.5242 41.5907C72.5242 41.5907 72.5243 41.5906 72.5243 41.5906Z" stroke="white" stroke-opacity="0.2" stroke-width="2"/>
<path fill-rule="evenodd" clip-rule="evenodd" d="M20.75 25.1092V16.496C20.75 16.1909 20.8376 15.9491 21.0147 15.772C21.1927 15.5959 21.4312 15.5073 21.7306 15.5073H26.2838C26.5489 15.5073 26.7674 15.5916 26.9379 15.7606C27.1064 15.931 27.1906 16.1485 27.1906 16.4146C27.1906 16.6803 27.1064 16.8978 26.9379 17.0668C26.7674 17.2382 26.5489 17.3229 26.2838 17.3229H22.7131V19.8915H25.5098C25.7764 19.8915 25.9934 19.9763 26.1629 20.1452C26.3333 20.3157 26.418 20.5337 26.418 20.7983C26.418 21.0649 26.3333 21.2829 26.1629 21.4519C25.9934 21.6223 25.7764 21.7071 25.5098 21.7071H22.7131V24.2762H26.4318C26.6965 24.2762 26.9145 24.3604 27.084 24.5309C27.2544 24.6999 27.3387 24.9184 27.3387 25.184C27.3387 25.4496 27.2544 25.6681 27.084 25.8371C26.9145 26.007 26.6965 26.0922 26.4318 26.0922H21.7306C21.4312 26.0922 21.1927 26.0037 21.0147 25.8252C20.8376 25.6486 20.75 25.4101 20.75 25.1092Z" fill="#FEFEFE"/>
<path fill-rule="evenodd" clip-rule="evenodd" d="M18.7174 15.7788C18.5427 15.6012 18.3028 15.5127 17.9977 15.5127H12.6305C12.3306 15.5127 12.0926 15.6012 11.9155 15.7788C11.7384 15.9554 11.6484 16.1953 11.6484 16.4943V25.1536C11.6484 25.4545 11.7384 25.6925 11.9155 25.8705C12.0926 26.0476 12.3306 26.1366 12.6305 26.1366C12.9313 26.1366 13.1708 26.0476 13.3474 25.8705C13.5245 25.6925 13.612 25.4545 13.612 25.1536V17.3225H17.0161V25.1536C17.0161 25.4545 17.1037 25.6925 17.2784 25.8705C17.4526 26.0476 17.6921 26.1366 17.9977 26.1366C18.3028 26.1366 18.5427 26.0476 18.7174 25.8705C18.8926 25.6925 18.9802 25.4545 18.9802 25.1536V16.4943C18.9802 16.1953 18.8926 15.9554 18.7174 15.7788Z" fill="#FEFEFE"/>
<path fill-rule="evenodd" clip-rule="evenodd" d="M28.2351 17.067C28.0662 16.898 27.9805 16.6805 27.9805 16.4148C27.9805 16.1483 28.0662 15.9307 28.2351 15.7608C28.4037 15.5913 28.6226 15.5061 28.8878 15.5061H34.631C34.8976 15.5061 35.1142 15.5913 35.2832 15.7608C35.4545 15.9307 35.5402 16.1483 35.5402 16.4148C35.5402 16.6805 35.4545 16.898 35.2832 17.067C35.1142 17.2379 34.8976 17.3231 34.631 17.3231H32.7422V25.1566C32.7422 25.456 32.6541 25.694 32.4789 25.872C32.3047 26.0491 32.0643 26.1377 31.7587 26.1377C31.4545 26.1377 31.2151 26.0491 31.0404 25.872C30.8652 25.694 30.7776 25.456 30.7776 25.1566V17.3231H28.8878C28.6226 17.3231 28.4037 17.2379 28.2351 17.067Z" fill="#FEFEFE"/>
<path fill-rule="evenodd" clip-rule="evenodd" d="M38.3515 20.9538H39.7087C40.2799 20.9538 40.725 20.7934 41.0449 20.4744C41.3648 20.1536 41.5252 19.709 41.5252 19.1387C41.5252 18.567 41.3648 18.1229 41.0449 17.8025C40.725 17.4831 40.2799 17.3227 39.7087 17.3227H38.3515V20.9538ZM36.3867 25.1309V16.4963C36.3867 16.1907 36.4753 15.9488 36.6528 15.7718C36.8304 15.5947 37.0689 15.5076 37.3683 15.5076H39.7084C40.8304 15.5076 41.7539 15.8546 42.4813 16.5515C43.2053 17.2474 43.5699 18.109 43.5699 19.1387C43.5699 20.1669 43.2053 21.028 42.4813 21.7216C41.7539 22.4157 40.8304 22.7627 39.7084 22.7627H38.3513V25.1309C38.3513 25.4318 38.2623 25.6688 38.0842 25.8483C37.9076 26.0249 37.6691 26.1134 37.3683 26.1134C37.0689 26.1134 36.8304 26.0249 36.6528 25.8483C36.4753 25.6688 36.3867 25.4318 36.3867 25.1309Z" fill="#FEFEFE"/>
<path fill-rule="evenodd" clip-rule="evenodd" d="M52.5068 25.184C52.5068 24.947 52.6168 24.6437 52.8386 24.2762L55.1483 20.6518L53.0595 17.3225C52.8386 16.9535 52.7282 16.6503 52.7282 16.4142C52.7282 16.1486 52.8267 15.9187 53.0224 15.7249C53.2209 15.5302 53.4513 15.4336 53.7169 15.4336C53.9235 15.4336 54.1058 15.4864 54.2624 15.5954C54.4205 15.7025 54.539 15.8258 54.618 15.9644L56.3303 18.8357H56.3888L58.0939 15.9644C58.172 15.8258 58.2925 15.7025 58.4514 15.5954C58.6114 15.4864 58.7942 15.4336 59.0022 15.4336C59.2674 15.4336 59.4982 15.5302 59.6924 15.7249C59.8862 15.9187 59.9838 16.1486 59.9838 16.4142C59.9838 16.6503 59.8738 16.9535 59.6515 17.3225L57.5703 20.6518L59.8809 24.2762C60.1018 24.6437 60.2123 24.947 60.2123 25.184C60.2123 25.4496 60.1152 25.6796 59.9209 25.8743C59.7272 26.068 59.4958 26.1656 59.2307 26.1656C59.0241 26.1656 58.8408 26.1132 58.6814 26.0071C58.5209 25.9009 58.4015 25.7786 58.322 25.642L56.3888 22.4597H56.3303L54.3957 25.642C54.3167 25.7786 54.1977 25.9009 54.0377 26.0071C53.8778 26.1132 53.695 26.1656 53.4879 26.1656C53.2218 26.1656 52.9919 26.068 52.7972 25.8743C52.603 25.6796 52.5068 25.4496 52.5068 25.184Z" fill="#FEFEFE"/>
<path fill-rule="evenodd" clip-rule="evenodd" d="M63.9424 21.8234H66.215L65.1239 17.9634H65.0349L63.9424 21.8234ZM60.9795 25.1385C60.9795 24.9819 61.0304 24.7301 61.1342 24.3849L63.6405 16.5315C63.7438 16.2125 63.9199 15.9555 64.1684 15.7603C64.4164 15.567 64.7201 15.4685 65.079 15.4685C65.4394 15.4685 65.7412 15.567 65.9878 15.7603C66.2334 15.9555 66.4086 16.2125 66.5114 16.5315L69.0957 24.4102C69.1938 24.7391 69.2433 24.99 69.2433 25.1623C69.2433 25.4279 69.1457 25.6583 68.951 25.8525C68.7568 26.0463 68.5264 26.1458 68.2603 26.1458C67.7595 26.1458 67.4073 25.8168 67.2054 25.1623L66.7404 23.7133H63.4191L63.0226 25.1385C62.8217 25.793 62.4695 26.1196 61.9682 26.1196C61.7021 26.1196 61.4703 26.022 61.2737 25.8283C61.0771 25.634 60.9795 25.4046 60.9795 25.1385Z" fill="#FEFEFE"/>
<path fill-rule="evenodd" clip-rule="evenodd" d="M51.8935 16.3788C51.8707 16.1218 51.756 15.9061 51.5536 15.7371C51.3499 15.5677 51.1209 15.4934 50.8591 15.5163C50.5992 15.5391 50.2374 15.6776 49.9975 16.2113L48.0696 20.5688L46.0018 16.2084C45.7623 15.6776 45.3986 15.5391 45.1392 15.5163C44.8826 15.4934 44.6498 15.5672 44.4475 15.7371C44.2438 15.9061 44.1295 16.1218 44.1067 16.3788C44.0853 16.6183 44.1467 16.8858 44.289 17.1795L47.0166 22.7995L46.7106 23.5073C46.6144 23.7406 46.4978 23.9095 46.3626 24.0133C46.2545 24.0976 46.0912 24.1452 45.8961 24.1528L45.4281 24.138C44.8455 24.139 44.5708 24.4108 44.4432 24.6393C44.3142 24.8678 44.2866 25.1201 44.3614 25.3676C44.5951 26.1316 45.6428 26.1316 45.9865 26.1316C46.7896 26.1316 47.3913 25.7651 47.6202 25.548C47.9773 25.2124 48.2624 24.7921 48.468 24.308L51.7117 17.1795C51.8535 16.8853 51.9154 16.6183 51.8935 16.3788Z" fill="#FEFEFE"/>
<path fill-rule="evenodd" clip-rule="evenodd" d="M61.5229 34.4558H13.1191V42.5344C13.1191 47.9778 17.8699 52.4072 23.7079 52.4072H72.1106V44.3291C72.1106 38.8838 67.3608 34.4558 61.5229 34.4558Z" fill="#FEFEFE"/>
<path fill-rule="evenodd" clip-rule="evenodd" d="M71.1396 51.5012H23.7089C18.405 51.5012 14.0898 47.4788 14.0898 42.5329V35.3611H61.5229C66.8254 35.3611 71.1396 39.3849 71.1396 44.3289V51.5012ZM15.061 36.2651V42.5329C15.061 46.9794 18.9402 50.5972 23.709 50.5972H70.1696V44.3289C70.1696 39.8838 66.2904 36.2651 61.523 36.2651H15.061Z" fill="#13110C"/>
<path fill-rule="evenodd" clip-rule="evenodd" d="M29.7802 47.724C29.158 47.724 28.7263 47.377 28.7263 46.6325C28.7263 45.5886 28.5449 42.5777 28.414 41.7627C28.3045 42.0265 28.1489 42.3625 28.0284 42.7353L26.8784 46.2598C26.686 46.8486 26.4342 47.3994 26.2067 47.724H25.763C25.2237 47.724 24.7434 47.3046 24.4435 46.4164L23.2663 42.9504C23.1239 42.5306 22.9316 42.0393 22.8117 41.7513C22.596 42.9266 22.4518 46.2255 22.4518 47.724H21.8748C21.2641 47.724 20.8447 47.3289 20.8447 46.6325C20.8447 44.7974 21.2036 41.1392 21.504 39.5078H21.8529C22.9921 39.5078 23.7947 40.0248 24.1079 40.9007L25.2446 44.1134C25.4979 44.8112 25.6421 45.301 25.7154 45.6719C25.7744 45.3615 25.8568 45.1097 25.942 44.8326L26.8893 41.9189C27.3106 40.6117 27.8366 39.7839 28.1736 39.5078H28.3631C29.2775 39.5078 29.8768 40.0843 30.0077 41.211C30.1639 42.5072 30.4033 46.0813 30.4033 47.724H29.7802Z" fill="#1D1D1B"/>
<path fill-rule="evenodd" clip-rule="evenodd" d="M34.7405 41.0201C34.2616 41.8703 33.7451 43.177 33.469 44.3185H36.0129C35.7373 43.1661 35.1722 41.787 34.7405 41.0201ZM37.7172 47.724C37.0327 47.724 36.6724 47.3275 36.6114 46.9329C36.5405 46.393 36.4686 45.9718 36.3829 45.6262H33.1103C32.9422 46.3202 32.7985 47.0285 32.6795 47.724H32.0425C31.5042 47.724 31.2861 47.4365 31.2861 46.9329C31.2861 45.7452 32.8218 40.9116 34.0814 39.5078H34.753C35.4118 39.5078 35.8574 39.8682 36.0835 40.2647C36.828 41.5952 38.0628 45.134 38.3884 47.724H37.7172Z" fill="#1D1D1B"/>
<path fill-rule="evenodd" clip-rule="evenodd" d="M45.4727 41.7031C44.9567 41.0319 43.9271 40.8163 43.2178 40.8163C41.754 40.8163 40.6634 41.8712 40.6634 43.4658C40.6634 45.3976 41.7312 46.3682 43.2768 46.3682C44.0941 46.3682 45.0057 46.045 45.4489 45.5775H45.5094V46.1897C45.5094 47.3169 44.2003 47.7958 43.0636 47.7958C40.8791 47.7958 39.0078 46.1644 39.0078 43.7058C39.0078 41.1752 40.6982 39.3892 43.2054 39.3892C44.5492 39.3892 45.5322 39.9404 45.5322 41.0681V41.7031H45.4727Z" fill="#1D1D1B"/>
<path fill-rule="evenodd" clip-rule="evenodd" d="M51.2619 40.9473H49.7529V47.724H49.0917C48.5172 47.724 48.0978 47.3523 48.0978 46.6206V40.9473H45.7324V40.408C45.7324 40.0119 46.0575 39.5083 46.7287 39.5083H52.2459V40.0253C52.2459 40.4199 51.8037 40.9473 51.2619 40.9473Z" fill="#1D1D1B"/>
<path fill-rule="evenodd" clip-rule="evenodd" d="M58.7673 46.766C58.7558 47.4258 58.4198 47.7833 56.9802 47.7833H56.1044C54.1022 47.7833 53.0459 46.6813 53.0459 44.5825V43.0592C53.0459 42.2785 53.1059 41.4031 53.2025 40.7448C53.3334 39.7604 53.7904 39.5081 54.4616 39.5081H58.7558V40.0593C58.7558 40.6362 58.4079 40.9233 57.6514 40.9233H54.8334C54.7491 41.524 54.7134 42.3271 54.7134 42.8426H57.879V43.4305C57.879 43.9708 57.5453 44.186 56.885 44.186H54.7134V44.6653C54.7134 46.0943 55.1813 46.3681 56.4528 46.3681H56.9802C57.58 46.3681 58.1908 46.32 58.7806 46.1886L58.7673 46.766Z" fill="#1D1D1B"/>
<path fill-rule="evenodd" clip-rule="evenodd" d="M62.6743 40.8399H62.1483C61.9431 40.8399 61.6561 40.9118 61.4638 40.9475V43.2748C61.7508 43.3581 62.2078 43.4176 62.6272 43.4176C63.4674 43.4176 63.9229 42.9387 63.9229 42.1471C63.9229 41.2112 63.5378 40.8399 62.6743 40.8399ZM62.8426 44.8114C62.2676 44.8114 61.8001 44.7133 61.4636 44.5348V47.7242H60.8162C60.3602 47.7242 59.8213 47.4257 59.8213 46.5489V39.8317C60.2759 39.6641 61.3669 39.449 61.9553 39.449H62.8793C64.4735 39.449 65.614 40.361 65.614 42.0033C65.614 43.7422 64.4145 44.8114 62.8426 44.8114Z" fill="#1D1D1B"/>
</svg>
