<svg width="150" height="100" viewBox="0 0 150 100" fill="none" xmlns="http://www.w3.org/2000/svg">
<path fill-rule="evenodd" clip-rule="evenodd" d="M109.522 11.2387L45.5706 11.1859C27.1595 11.1859 20.7586 6.13219 18.4984 2.61367C17.2799 0.713672 15.4789 0.41182 13.8067 1.74052C8.7095 5.79793 0.000244141 14.7609 0.000244141 29.997C0.000244141 56.2016 19.9077 67.059 40.2512 67.059L104.207 67.1137C122.613 67.1137 129.017 72.1655 131.277 75.685C132.497 77.5831 134.297 77.8859 135.967 76.5563C141.064 72.4998 149.774 63.534 149.774 48.2989C149.774 22.0952 129.869 11.2387 109.522 11.2387Z" fill="#DF2527"/>
<path fill-rule="evenodd" clip-rule="evenodd" d="M36.4711 46.0196V29.2659C36.4711 28.6724 36.6414 28.202 36.9859 27.8576C37.3322 27.515 37.7961 27.3428 38.3785 27.3428H47.235C47.7507 27.3428 48.1757 27.5067 48.5072 27.8354C48.835 28.1668 48.9988 28.59 48.9988 29.1076C48.9988 29.6243 48.835 30.0474 48.5072 30.3761C48.1757 30.7094 47.7507 30.8743 47.235 30.8743H40.2896V35.8706H45.7294C46.2479 35.8706 46.6701 36.0354 46.9998 36.3641C47.3313 36.6956 47.4961 37.1196 47.4961 37.6344C47.4961 38.153 47.3313 38.577 46.9998 38.9057C46.6701 39.2372 46.2479 39.402 45.7294 39.402H40.2896V44.3993H47.5229C48.0377 44.3993 48.4618 44.5631 48.7914 44.8946C49.1229 45.2233 49.2868 45.6483 49.2868 46.165C49.2868 46.6817 49.1229 47.1067 48.7914 47.4354C48.4618 47.7659 48.0377 47.9317 47.5229 47.9317H38.3785C37.7961 47.9317 37.3322 47.7594 36.9859 47.4122C36.6414 47.0687 36.4711 46.6048 36.4711 46.0196Z" fill="#FEFEFE"/>
<path fill-rule="evenodd" clip-rule="evenodd" d="M32.5178 27.8711C32.178 27.5257 31.7113 27.3535 31.1178 27.3535H20.678C20.0947 27.3535 19.6317 27.5257 19.2873 27.8711C18.9428 28.2146 18.7678 28.6813 18.7678 29.2628V46.1063C18.7678 46.6915 18.9428 47.1544 19.2873 47.5007C19.6317 47.8452 20.0947 48.0183 20.678 48.0183C21.2632 48.0183 21.7289 47.8452 22.0725 47.5007C22.4169 47.1544 22.5873 46.6915 22.5873 46.1063V30.8739H29.2086V46.1063C29.2086 46.6915 29.3789 47.1544 29.7187 47.5007C30.0576 47.8452 30.5234 48.0183 31.1178 48.0183C31.7113 48.0183 32.178 47.8452 32.5178 47.5007C32.8586 47.1544 33.0289 46.6915 33.0289 46.1063V29.2628C33.0289 28.6813 32.8586 28.2146 32.5178 27.8711Z" fill="#FEFEFE"/>
<path fill-rule="evenodd" clip-rule="evenodd" d="M51.0309 30.3767C50.7022 30.048 50.5355 29.6248 50.5355 29.1082C50.5355 28.5897 50.7022 28.1665 51.0309 27.8359C51.3587 27.5063 51.7846 27.3406 52.3003 27.3406H63.4716C63.9902 27.3406 64.4114 27.5063 64.7402 27.8359C65.0735 28.1665 65.2402 28.5897 65.2402 29.1082C65.2402 29.6248 65.0735 30.048 64.7402 30.3767C64.4114 30.7091 63.9902 30.8748 63.4716 30.8748H59.7976V46.1119C59.7976 46.6943 59.6263 47.1572 59.2855 47.5035C58.9466 47.848 58.479 48.0202 57.8846 48.0202C57.2929 48.0202 56.8272 47.848 56.4874 47.5035C56.1466 47.1572 55.9763 46.6943 55.9763 46.1119V30.8748H52.3003C51.7846 30.8748 51.3587 30.7091 51.0309 30.3767Z" fill="#FEFEFE"/>
<path fill-rule="evenodd" clip-rule="evenodd" d="M70.7086 37.9368H73.3484C74.4596 37.9368 75.3253 37.6247 75.9475 37.0044C76.5697 36.3803 76.8818 35.5155 76.8818 34.4062C76.8818 33.2942 76.5697 32.4303 75.9475 31.8072C75.3253 31.1859 74.4596 30.8738 73.3484 30.8738H70.7086V37.9368ZM66.8873 46.0618V29.2664C66.8873 28.672 67.0596 28.2016 67.4049 27.8572C67.7503 27.5127 68.2142 27.3433 68.7966 27.3433H73.3484C75.5308 27.3433 77.3271 28.0183 78.742 29.3738C80.1503 30.7275 80.8596 32.4034 80.8596 34.4062C80.8596 36.4062 80.1503 38.0812 78.742 39.4303C77.3271 40.7803 75.5308 41.4553 73.3484 41.4553H70.7086V46.0618C70.7086 46.647 70.5355 47.1081 70.1892 47.4572C69.8457 47.8007 69.3818 47.9729 68.7966 47.9729C68.2142 47.9729 67.7503 47.8007 67.4049 47.4572C67.0596 47.1081 66.8873 46.647 66.8873 46.0618Z" fill="#FEFEFE"/>
<path fill-rule="evenodd" clip-rule="evenodd" d="M98.2413 46.1652C98.2413 45.7041 98.4552 45.1143 98.8867 44.3995L103.379 37.3495L99.3163 30.8735C98.8867 30.1559 98.6719 29.5661 98.6719 29.1069C98.6719 28.5902 98.8636 28.143 99.2441 27.7661C99.6302 27.3874 100.078 27.1995 100.595 27.1995C100.997 27.1995 101.352 27.3022 101.656 27.5143C101.964 27.7226 102.194 27.9624 102.348 28.2319L105.678 33.8171H105.792L109.109 28.2319C109.261 27.9624 109.495 27.7226 109.804 27.5143C110.115 27.3022 110.471 27.1995 110.876 27.1995C111.391 27.1995 111.84 27.3874 112.218 27.7661C112.595 28.143 112.785 28.5902 112.785 29.1069C112.785 29.5661 112.571 30.1559 112.139 30.8735L108.09 37.3495L112.585 44.3995C113.014 45.1143 113.229 45.7041 113.229 46.1652C113.229 46.6819 113.04 47.1291 112.663 47.5078C112.286 47.8846 111.836 48.0745 111.32 48.0745C110.918 48.0745 110.562 47.9726 110.252 47.7661C109.939 47.5596 109.707 47.3217 109.552 47.0559L105.792 40.8661H105.678L101.915 47.0559C101.762 47.3217 101.53 47.5596 101.219 47.7661C100.908 47.9726 100.552 48.0745 100.15 48.0745C99.6321 48.0745 99.1849 47.8846 98.8061 47.5078C98.4284 47.1291 98.2413 46.6819 98.2413 46.1652Z" fill="#FEFEFE"/>
<path fill-rule="evenodd" clip-rule="evenodd" d="M120.486 39.6287H124.907L122.784 32.1204H122.611L120.486 39.6287ZM114.722 46.0768C114.722 45.7722 114.821 45.2824 115.023 44.6111L119.898 29.3352C120.099 28.7148 120.442 28.2148 120.925 27.8352C121.407 27.4592 121.998 27.2676 122.696 27.2676C123.397 27.2676 123.984 27.4592 124.464 27.8352C124.942 28.2148 125.282 28.7148 125.482 29.3352L130.509 44.6602C130.7 45.3 130.796 45.7879 130.796 46.1231C130.796 46.6398 130.607 47.0879 130.228 47.4657C129.85 47.8426 129.402 48.0361 128.884 48.0361C127.91 48.0361 127.225 47.3963 126.832 46.1231L125.928 43.3046H119.468L118.696 46.0768C118.306 47.35 117.62 47.9852 116.645 47.9852C116.128 47.9852 115.677 47.7954 115.295 47.4185C114.912 47.0407 114.722 46.5944 114.722 46.0768Z" fill="#FEFEFE"/>
<path fill-rule="evenodd" clip-rule="evenodd" d="M97.0478 29.0382C97.0034 28.5382 96.7802 28.1188 96.3867 27.7901C95.9904 27.4604 95.545 27.316 95.0358 27.3604C94.5302 27.4049 93.8265 27.6743 93.3599 28.7123L89.6099 37.1882L85.5876 28.7067C85.1219 27.6743 84.4145 27.4049 83.9099 27.3604C83.4108 27.316 82.958 27.4595 82.5645 27.7901C82.1682 28.1188 81.946 28.5382 81.9015 29.0382C81.8599 29.5039 81.9793 30.0243 82.2562 30.5956L87.5617 41.5271L86.9663 42.9039C86.7793 43.3576 86.5524 43.6863 86.2895 43.8882C86.0793 44.0521 85.7617 44.1447 85.3821 44.1595L84.4719 44.1308C83.3386 44.1326 82.8043 44.6613 82.5562 45.1058C82.3052 45.5502 82.2515 46.041 82.3969 46.5225C82.8515 48.0086 84.8895 48.0086 85.558 48.0086C87.12 48.0086 88.2904 47.2956 88.7358 46.8734C89.4302 46.2206 89.9849 45.403 90.3849 44.4613L96.6941 30.5956C96.97 30.0234 97.0904 29.5039 97.0478 29.0382Z" fill="#FEFEFE"/>
<path fill-rule="evenodd" clip-rule="evenodd" d="M115.78 64.2H21.6288V79.9138C21.6288 90.5018 30.8695 99.1175 42.2251 99.1175H136.374V83.4046C136.374 72.8129 127.135 64.2 115.78 64.2Z" fill="#FEFEFE"/>
<path fill-rule="evenodd" clip-rule="evenodd" d="M134.485 97.3551H42.2272C31.9105 97.3551 23.517 89.5311 23.517 79.9107V65.9607H115.78C126.094 65.9607 134.485 73.7875 134.485 83.4042V97.3551ZM25.4059 67.719V79.9107C25.4059 88.5598 32.9512 95.5968 42.2272 95.5968H132.598V83.4042C132.598 74.7579 125.053 67.719 115.78 67.719H25.4059Z" fill="#13110C"/>
<path fill-rule="evenodd" clip-rule="evenodd" d="M54.0366 90.0083C52.8264 90.0083 51.9866 89.3333 51.9866 87.8852C51.9866 85.8546 51.6338 79.9982 51.3792 78.413C51.1662 78.9259 50.8634 79.5796 50.6292 80.3046L48.3921 87.1602C48.018 88.3056 47.5282 89.3769 47.0856 90.0083H46.2227C45.1736 90.0083 44.2393 89.1926 43.656 87.4648L41.3662 80.7232C41.0893 79.9065 40.7153 78.9509 40.4819 78.3907C40.0625 80.6769 39.7819 87.0935 39.7819 90.0083H38.6597C37.4717 90.0083 36.656 89.2398 36.656 87.8852C36.656 84.3157 37.3542 77.2 37.9384 74.0269H38.6171C40.8329 74.0269 42.394 75.0324 43.0032 76.7361L45.2143 82.9852C45.7069 84.3426 45.9875 85.2954 46.1301 86.0167C46.2449 85.413 46.4051 84.9232 46.5708 84.3843L48.4134 78.7167C49.2329 76.1741 50.256 74.5639 50.9116 74.0269H51.2801C53.0588 74.0269 54.2245 75.1482 54.4792 77.3398C54.7829 79.8611 55.2486 86.813 55.2486 90.0083H54.0366Z" fill="#1D1D1B"/>
<path fill-rule="evenodd" clip-rule="evenodd" d="M63.6845 76.9685C62.7531 78.6222 61.7484 81.1639 61.2114 83.3843H66.1595C65.6234 81.1426 64.5243 78.4602 63.6845 76.9685ZM69.4743 90.0083C68.1429 90.0083 67.4419 89.237 67.3234 88.4694C67.1855 87.4194 67.0456 86.6 66.879 85.9278H60.5132C60.1864 87.2778 59.9068 88.6556 59.6753 90.0083H58.4364C57.3892 90.0083 56.9651 89.4491 56.9651 88.4694C56.9651 86.1593 59.9521 76.7574 62.4021 74.0269H63.7086C64.9901 74.0269 65.8568 74.7278 66.2966 75.4991C67.7447 78.087 70.1466 84.9704 70.7799 90.0083H69.4743Z" fill="#1D1D1B"/>
<path fill-rule="evenodd" clip-rule="evenodd" d="M84.5605 78.2968C83.5568 76.9913 81.554 76.5718 80.1744 76.5718C77.3271 76.5718 75.2058 78.6237 75.2058 81.7255C75.2058 85.4829 77.2827 87.3709 80.2892 87.3709C81.879 87.3709 83.6521 86.7422 84.5142 85.8329H84.6318V87.0237C84.6318 89.2163 82.0855 90.1478 79.8744 90.1478C75.6253 90.1478 71.9855 86.9746 71.9855 82.1922C71.9855 77.27 75.2734 73.7959 80.1503 73.7959C82.7642 73.7959 84.6762 74.8681 84.6762 77.0616V78.2968H84.5605Z" fill="#1D1D1B"/>
<path fill-rule="evenodd" clip-rule="evenodd" d="M95.8207 76.8267H92.8856V90.0081H91.5994C90.4819 90.0081 89.6661 89.285 89.6661 87.8618V76.8267H85.0652V75.7776C85.0652 75.0072 85.6976 74.0276 87.0031 74.0276H97.7346V75.0331C97.7346 75.8007 96.8744 76.8267 95.8207 76.8267Z" fill="#1D1D1B"/>
<path fill-rule="evenodd" clip-rule="evenodd" d="M110.42 88.1447C110.398 89.428 109.744 90.1234 106.944 90.1234H105.241C101.346 90.1234 99.2916 87.9799 99.2916 83.8975V80.9345C99.2916 79.416 99.4083 77.7132 99.5963 76.4327C99.8509 74.5178 100.74 74.0271 102.045 74.0271H110.398V75.0993C110.398 76.2215 109.721 76.7799 108.25 76.7799H102.768C102.605 77.9484 102.535 79.5104 102.535 80.5132H108.693V81.6567C108.693 82.7077 108.043 83.1262 106.759 83.1262H102.535V84.0586C102.535 86.8382 103.445 87.3706 105.918 87.3706H106.944C108.111 87.3706 109.299 87.2771 110.446 87.0215L110.42 88.1447Z" fill="#1D1D1B"/>
<path fill-rule="evenodd" clip-rule="evenodd" d="M118.02 76.6177H116.996C116.597 76.6177 116.039 76.7575 115.665 76.8269V81.3538C116.223 81.5158 117.112 81.6316 117.928 81.6316C119.562 81.6316 120.448 80.7001 120.448 79.1603C120.448 77.3399 119.699 76.6177 118.02 76.6177ZM118.347 84.3427C117.229 84.3427 116.32 84.1519 115.665 83.8047V90.0084H114.406C113.519 90.0084 112.47 89.4279 112.47 87.7223V74.6566C113.355 74.3306 115.477 73.9121 116.621 73.9121H118.419C121.52 73.9121 123.738 75.6862 123.738 78.8806C123.738 82.263 121.405 84.3427 118.347 84.3427Z" fill="#1D1D1B"/>
</svg>
