<svg width="75" height="22" viewBox="0 0 75 22" fill="none" xmlns="http://www.w3.org/2000/svg">
<path fill-rule="evenodd" clip-rule="evenodd" d="M70.9289 21.9987L75 0H4.07023L0 22H70.9289V21.9987Z" fill="#DA2C2C"/>
<path fill-rule="evenodd" clip-rule="evenodd" d="M11.4516 10.4707L11.3964 9.83788H11.2812L11.1622 10.472L9.82707 17.6181H7.91479L10.4776 3.90392H12.3325L13.0227 11.0496L13.0783 11.6842H13.1939L13.3126 11.05L14.6477 3.90306H16.5595L13.9971 17.6164H12.1422L11.4516 10.4707ZM18.1042 3.9009H20.1895L17.6271 17.6147H15.5415L18.1042 3.9009ZM22.7087 10.4668L22.6531 9.8327H22.5375L22.4188 10.4668L21.0837 17.6125H19.1719L21.7347 3.89831H23.5896L24.2798 11.0444L24.3354 11.6781H24.4515L24.5697 11.0444L25.9069 3.89745H27.8188L25.256 17.6112H23.4011L22.7087 10.4668ZM28.6043 6.71388C28.7268 6.06035 29.3324 3.7469 31.8827 3.74561C34.433 3.74431 34.1733 6.05819 34.0517 6.71129L32.594 14.5127C32.4129 15.4828 31.8715 17.7583 29.2647 17.7592C26.6579 17.76 26.9677 15.4841 27.1488 14.514L27.3093 13.656H29.3946C29.0495 15.5031 28.9942 16.0061 29.5921 16.0052C30.1137 16.0052 30.3138 15.557 30.5088 14.5131L30.9898 11.9382C30.6547 12.14 30.2748 12.2554 29.8842 12.2743C27.7411 12.2743 27.9646 10.1485 28.1078 9.38408L28.6043 6.71388ZM32.076 6.11514C32.1057 5.96103 32.0639 5.80175 31.9624 5.68208C31.8608 5.56241 31.7105 5.49528 31.5536 5.49957C31.2 5.53058 30.9014 5.77502 30.8013 6.11557L30.0589 10.0898C30.0374 10.2425 30.0822 10.397 30.1819 10.5146C30.2816 10.6322 30.4267 10.7016 30.5808 10.7054C30.9218 10.6941 31.2189 10.4695 31.3228 10.1446L32.076 6.11514ZM38.0289 5.88953H34.9006L35.2737 3.89314H40.5266L40.15 5.90851L35.8794 17.6086H33.7165L38.0289 5.88953ZM41.5312 3.89141H46.3L45.9118 5.962H43.2278L42.5549 9.5631H44.4857L44.0742 11.7631H42.1442L41.4415 15.535H44.1251L43.7368 17.6056H38.9671L41.5312 3.89141ZM51.2449 3.88839H53.2723L48.5466 17.6026H46.4614L46.8613 3.88925H48.8887L48.5225 11.4271L48.4923 12.0051H48.6083L48.793 11.4266L51.2449 3.88839ZM54.2188 3.88839H58.9889L58.6006 5.95898H55.9162L55.2433 9.56008H57.1745L56.7639 11.7601H54.8326L54.1286 15.532H56.813L56.4248 17.6026H51.6551L54.2188 3.88839ZM61.1207 10.4534L61.0655 9.81933H60.9499L60.8313 10.4534L59.494 17.5996H57.5817L60.1471 3.88494H62.002L62.6944 11.0311L62.7513 11.666H62.8673L62.9855 11.0315L64.3228 3.88537H66.2342L63.6723 17.5996H61.8174L61.1207 10.4534Z" fill="white"/>
</svg>
