<svg width="36" height="36" viewBox="0 0 36 36" fill="none" xmlns="http://www.w3.org/2000/svg">
<path d="M17.5503 1C17.5503 0.723858 17.7742 0.5 18.0503 0.5C18.3264 0.5 18.5503 0.723858 18.5503 1V6.27817L18 6.82843L17.5503 6.37868V1ZM17.5503 8.73097C17.574 8.68228 17.606 8.63663 17.6465 8.59619L18 8.24264L18.3536 8.59619C18.5489 8.79146 18.5489 9.10804 18.3536 9.3033C18.1583 9.49856 17.8417 9.49856 17.6465 9.3033C17.606 9.26286 17.574 9.21722 17.5503 9.16852V8.73097ZM23.3033 4.35355L19.5503 8.1066V6.69239L22.5962 3.64645C22.7915 3.45118 23.1081 3.45118 23.3033 3.64645C23.4986 3.84171 23.4986 4.15829 23.3033 4.35355ZM18.5503 25.6041C18.2306 25.4783 17.8765 25.4665 17.5503 25.5686V10.3811C17.8765 10.4832 18.2306 10.4714 18.5503 10.3456V25.6041ZM16.5503 6.79289V8.20711L12.6967 4.35355C12.5015 4.15829 12.5015 3.84171 12.6967 3.64645C12.892 3.45118 13.2086 3.45118 13.4038 3.64645L16.5503 6.79289ZM18.3536 27.3535L18 27.7071L17.6465 27.3535C17.606 27.3131 17.574 27.2674 17.5503 27.2187V26.7812C17.574 26.7325 17.606 26.6868 17.6465 26.6464C17.8417 26.4511 18.1583 26.4511 18.3536 26.6464C18.5489 26.8417 18.5489 27.1583 18.3536 27.3535ZM16.5503 27.7426V29.1568L13.4038 32.3033C13.2086 32.4985 12.892 32.4985 12.6967 32.3033C12.5015 32.108 12.5015 31.7914 12.6967 31.5962L16.5503 27.7426ZM17.5503 35V29.571L18 29.1213L18.5503 29.6715V35C18.5503 35.2761 18.3264 35.5 18.0503 35.5C17.7742 35.5 17.5503 35.2761 17.5503 35ZM22.5962 32.3033L19.5503 29.2573V27.8431L23.3033 31.5962C23.4986 31.7914 23.4986 32.108 23.3033 32.3033C23.1081 32.4985 22.7915 32.4985 22.5962 32.3033Z" fill="#DF2527" stroke="#DF2527"/>
<path d="M35 17.5503C35.2761 17.5503 35.5 17.7742 35.5 18.0503C35.5 18.3264 35.2761 18.5503 35 18.5503L29.7218 18.5503L29.1716 18L29.6213 17.5503L35 17.5503ZM27.269 17.5503C27.3177 17.574 27.3634 17.606 27.4038 17.6465L27.7574 18L27.4038 18.3536C27.2085 18.5489 26.892 18.5489 26.6967 18.3536C26.5014 18.1583 26.5014 17.8417 26.6967 17.6465C26.7371 17.606 26.7828 17.574 26.8315 17.5503L27.269 17.5503ZM31.6464 23.3033L27.8934 19.5503L29.3076 19.5503L32.3536 22.5962C32.5488 22.7915 32.5488 23.1081 32.3536 23.3033C32.1583 23.4986 31.8417 23.4986 31.6464 23.3033ZM10.3959 18.5503C10.5217 18.2306 10.5335 17.8764 10.4314 17.5503L25.6189 17.5503C25.5168 17.8765 25.5286 18.2306 25.6544 18.5503L10.3959 18.5503ZM29.2071 16.5503L27.7929 16.5503L31.6464 12.6967C31.8417 12.5015 32.1583 12.5015 32.3536 12.6967C32.5488 12.892 32.5488 13.2086 32.3536 13.4038L29.2071 16.5503ZM8.64649 18.3536L8.29293 18L8.64649 17.6465C8.68693 17.606 8.73257 17.574 8.78126 17.5503L9.21882 17.5503C9.26751 17.574 9.31315 17.606 9.35359 17.6465C9.54886 17.8417 9.54886 18.1583 9.35359 18.3536C9.15833 18.5489 8.84175 18.5489 8.64649 18.3536ZM8.2574 16.5503L6.84319 16.5503L3.69674 13.4038C3.50148 13.2086 3.50148 12.892 3.69674 12.6967C3.892 12.5015 4.20859 12.5015 4.40385 12.6967L8.2574 16.5503ZM1 17.5503L6.42897 17.5503L6.87872 18L6.32847 18.5503L1 18.5503C0.723858 18.5503 0.5 18.3264 0.5 18.0503C0.5 17.7741 0.723858 17.5503 1 17.5503ZM3.69674 22.5962L6.74268 19.5503L8.15689 19.5503L4.40385 23.3033C4.20859 23.4986 3.892 23.4986 3.69674 23.3033C3.50148 23.1081 3.50148 22.7915 3.69674 22.5962Z" fill="#DF2527" stroke="#DF2527"/>
<rect x="23.707" y="11.6361" width="1" height="17" rx="0.5" transform="rotate(45 23.707 11.6361)" fill="#DF2527" stroke="#DF2527"/>
<path d="M24.0604 23.3034C24.2557 23.4987 24.2557 23.8153 24.0604 24.0105C23.8652 24.2058 23.5486 24.2058 23.3533 24.0105L12.0396 12.6968C11.8444 12.5016 11.8444 12.185 12.0396 11.9897C12.2349 11.7945 12.5515 11.7945 12.7467 11.9897L24.0604 23.3034Z" fill="#DF2527" stroke="#DF2527"/>
<circle cx="18.0503" cy="18" r="4" fill="white" stroke="#DF2527" stroke-width="2"/>
</svg>
