<svg width="13" height="18" viewBox="0 0 13 18" fill="none" xmlns="http://www.w3.org/2000/svg">
<path fill-rule="evenodd" clip-rule="evenodd" d="M1.80005 4.5C1.80005 2.01825 3.8183 0 6.30005 0C8.7818 0 10.8 2.01825 10.8 4.5C10.8 6.98175 8.7818 9 6.30005 9C3.8183 9 1.80005 6.98175 1.80005 4.5ZM4.05005 4.5C4.05005 5.74088 5.05917 6.75 6.30005 6.75C7.54092 6.75 8.55005 5.74088 8.55005 4.5C8.55005 3.25912 7.54092 2.25 6.30005 2.25C5.05917 2.25 4.05005 3.25912 4.05005 4.5Z" fill="#141312"/>
<path d="M12.2709 8.73496C11.8307 8.28834 11.1192 8.28834 10.6791 8.73496C8.26547 11.1839 4.33664 11.1839 1.92192 8.73496C1.48176 8.28834 0.770288 8.28834 0.330124 8.73496C-0.110041 9.18158 -0.110041 9.90347 0.330124 10.3512C1.73055 11.7722 3.50584 12.582 5.3363 12.7934L2.12681 16.0499C1.68664 16.4965 1.68664 17.2184 2.12681 17.665C2.56697 18.1116 3.27844 18.1116 3.7186 17.665L6.29993 15.0459L8.88125 17.665C9.10077 17.8878 9.38896 17.9997 9.67715 17.9997C9.96534 17.9997 10.2535 17.8878 10.4731 17.665C10.9132 17.2184 10.9132 16.4965 10.4731 16.0499L7.26356 12.7934C9.09402 12.582 10.8693 11.7722 12.2697 10.3512C12.7099 9.90462 12.7099 9.18158 12.2709 8.73496Z" fill="#141312"/>
</svg>
