<svg width="26" height="26" viewBox="0 0 26 26" fill="none" xmlns="http://www.w3.org/2000/svg">
<path d="M17.6554 21.6135L16.6538 17.8575C16.4531 17.1113 15.6606 16.6729 14.8868 16.8813L12.9959 17.39C12.9443 17.3045 12.8912 17.2156 12.8356 17.1217C12.3217 16.2649 11.6188 15.0914 11.1602 13.3696C10.6997 11.6437 10.7248 10.2725 10.7423 9.27109C10.7444 9.1651 10.7466 9.06307 10.7471 8.96524L12.0156 8.62483L12.6399 8.45639C13.4148 8.24769 13.882 7.46968 13.6833 6.72276L12.6818 2.96642C12.4827 2.22017 11.6897 1.78152 10.9148 1.99022L9.85469 2.27882L9.86248 2.30761C9.47188 2.46524 9.09277 2.68826 8.74669 2.96499C8.42147 3.23083 8.15385 3.50918 7.92936 3.81331C6.10929 6.24072 5.92221 9.31153 7.28221 14.4103C9.16236 21.4581 12.9531 23.1962 13.1177 23.2693C13.4789 23.4239 13.8494 23.5299 14.2524 23.5918C14.6858 23.6575 15.1248 23.6604 15.541 23.6011L15.5481 23.6226L16.6117 23.3482C17.3856 23.139 17.8535 22.3611 17.6554 21.6135Z" fill="white"/>
</svg>
