<svg width="27" height="29" viewBox="0 0 27 29" fill="none" xmlns="http://www.w3.org/2000/svg">
<path d="M5.19669 5.85728C9.31763 1.91266 15.4848 1.85235 19.6627 5.45317L16.3512 5.58586C15.9237 5.60396 15.5931 5.97791 15.6102 6.43028C15.6273 6.87058 15.9693 7.21438 16.3797 7.21438C16.3911 7.21438 16.3968 7.21438 16.4082 7.21438L21.4924 7.01534C21.9084 6.99724 22.2333 6.64138 22.2333 6.20108V6.14076C22.2333 6.1287 22.2333 6.12267 22.2333 6.11061V6.10458L22.0452 0.78477C22.0281 0.332405 21.6691 -0.0174232 21.2473 0.000671422C20.8198 0.018766 20.4892 0.392721 20.5063 0.845085L20.626 4.18052C18.557 2.38916 16.0092 1.35173 13.2847 1.20698C9.91041 1.02603 6.66723 2.25043 4.16503 4.65098C0.722363 7.95022 -0.73678 12.9685 0.357578 17.7454C0.443074 18.1194 0.756562 18.3667 1.10425 18.3667C1.16695 18.3667 1.22394 18.3606 1.28664 18.3425C1.69703 18.234 1.95352 17.7937 1.85092 17.3594C0.893357 13.1615 2.17011 8.75241 5.19669 5.85728Z" fill="white"/>
<path d="M25.7282 11.2544C25.6215 10.8201 25.1888 10.5487 24.7621 10.6572C24.3353 10.7658 24.0686 11.2061 24.1753 11.6404C25.177 15.8386 23.8434 20.2478 20.6962 23.1431C18.4855 25.1758 15.7117 26.1771 12.9497 26.1771C10.3122 26.1771 7.68066 25.2663 5.55882 23.4688L9.04385 23.1491C9.48245 23.1069 9.80843 22.7148 9.76694 22.2624C9.72545 21.8101 9.3402 21.4843 8.89568 21.5266L3.62664 22.0091C3.18805 22.0513 2.86207 22.4434 2.90355 22.8958L3.37771 28.2581C3.41327 28.6803 3.76296 29 4.17192 29C4.19563 29 4.21933 29 4.24304 28.9939C4.68163 28.9517 5.00761 28.5596 4.96613 28.1073L4.68163 24.8441C6.83311 26.6174 9.47059 27.6488 12.2859 27.7936C12.5111 27.8057 12.7363 27.8117 12.9556 27.8117C16.2214 27.8117 19.3271 26.5933 21.769 24.3494C25.3488 21.05 26.8661 16.0376 25.7282 11.2544Z" fill="white"/>
</svg>
