<svg width="167" height="202" viewBox="0 0 167 202" fill="none" xmlns="http://www.w3.org/2000/svg">
<g filter="url(#filter0_d)">
<path fill-rule="evenodd" clip-rule="evenodd" d="M92.8617 42.1073C90.994 38.8724 87.3524 37.3417 83.9268 37.9933C83.8694 37.8346 83.8523 37.6694 83.7649 37.5181C75.933 23.9528 58.7141 19.1773 45.3841 26.8733C32.0541 34.5694 27.5802 51.8693 35.4121 65.4347C35.4995 65.586 35.6339 65.6833 35.7427 65.8125C33.4659 68.4533 32.9703 72.3724 34.838 75.6073C36.6524 78.7499 40.1427 80.2958 43.4817 79.7854L73.1903 142.035C76.3238 147.463 83.2092 149.373 88.5428 146.293L127.225 123.96C132.559 120.881 134.348 113.963 131.093 108.343L92.1586 51.6821C94.27 49.0454 94.6761 45.2499 92.8617 42.1073Z" fill="white"/>
</g>
<path d="M78.6698 85.9376L85.4897 82.0001C86.7462 81.2747 87.14 79.6086 86.3701 78.2751C85.6002 76.9415 83.9604 76.4495 82.7039 77.175L75.884 81.1125C70.869 84.0079 69.2894 90.6903 72.3622 96.0125C75.435 101.335 82.0117 103.308 87.0269 100.413C89.5332 98.9655 92.8234 99.9527 94.3591 102.613C95.8947 105.272 95.1045 108.615 92.5982 110.062L85.7783 114C84.5217 114.725 84.1279 116.391 84.8978 117.725C85.6677 119.058 87.3075 119.55 88.5641 118.825L95.384 114.887C100.399 111.992 101.979 105.31 98.9058 99.9874C95.833 94.6652 89.2563 92.6919 84.2411 95.5874C81.7348 97.0344 78.4445 96.0472 76.9089 93.3875C75.3731 90.7278 76.1632 87.3848 78.6698 85.9376Z" fill="#E2D5E4"/>
<path d="M86.2837 48.9178L42.9303 73.9479C41.6014 74.7151 39.9499 74.3482 39.2461 73.1291C38.5422 71.91 39.0502 70.2967 40.3792 69.5294L83.7327 44.4993C85.0615 43.7321 86.713 44.0989 87.4168 45.318C88.1207 46.5371 87.6125 48.1506 86.2837 48.9178Z" fill="#E2D5E4"/>
<path d="M47.884 44.1651C49.0797 43.4747 49.4894 41.9458 48.7991 40.75C48.1087 39.5543 46.5797 39.1446 45.384 39.835C44.1883 40.5253 43.7786 42.0543 44.4689 43.25C45.1593 44.4458 46.6883 44.8554 47.884 44.1651Z" fill="#E2D5E4"/>
<path d="M57.884 38.1651C59.0797 37.4747 59.4894 35.9458 58.7991 34.75C58.1087 33.5543 56.5797 33.1446 55.384 33.835C54.1883 34.5253 53.7786 36.0543 54.4689 37.25C55.1593 38.4458 56.6883 38.8554 57.884 38.1651Z" fill="#E2D5E4"/>
<defs>
<filter id="filter0_d" x="-13.6279" y="0.123413" width="180.524" height="201.753" filterUnits="userSpaceOnUse" color-interpolation-filters="sRGB">
<feFlood flood-opacity="0" result="BackgroundImageFix"/>
<feColorMatrix in="SourceAlpha" type="matrix" values="0 0 0 0 0 0 0 0 0 0 0 0 0 0 0 0 0 0 127 0"/>
<feOffset dy="20"/>
<feGaussianBlur stdDeviation="15"/>
<feColorMatrix type="matrix" values="0 0 0 0 0.886275 0 0 0 0 0.835294 0 0 0 0 0.894118 0 0 0 1 0"/>
<feBlend mode="normal" in2="BackgroundImageFix" result="effect1_dropShadow"/>
<feBlend mode="normal" in="SourceGraphic" in2="effect1_dropShadow" result="shape"/>
</filter>
</defs>
</svg>
