<svg width="222" height="273" viewBox="0 0 222 273" fill="none" xmlns="http://www.w3.org/2000/svg">

	<g filter="url(#filter1_d)">
		<path fill-rule="evenodd" clip-rule="evenodd" d="M163.994 92.3171C179.637 65.2221 178.957 36.5335 162.445 27C145.932 17.4665 120.747 31.2221 105.104 58.3171C95.8691 74.3126 91.9964 91.928 94.7495 105.437C95.8626 110.881 94.8599 116.453 91.9297 121.13L53.7747 182.136C51.3497 186.021 50.6062 190.595 51.6838 195.021C52.7609 199.447 55.5198 203.135 59.4449 205.401C63.3699 207.667 67.9434 208.213 72.3152 206.933C76.687 205.653 80.277 202.722 82.4287 198.679L116.186 135.129C118.769 130.257 123.094 126.602 128.364 124.844C141.44 120.474 154.759 108.313 163.994 92.3171Z" fill="white"/>
	</g>
	<path d="M147.434 78.378C145.371 77.1868 142.751 77.8691 141.576 79.9036C136.976 87.8723 131.356 94.6585 126.167 98.5296C124.276 99.9349 123.911 102.605 125.355 104.498C125.713 104.972 126.155 105.352 126.643 105.634C128.094 106.472 129.958 106.426 131.37 105.377C137.541 100.784 143.815 93.2679 149.042 84.214C150.216 82.1794 149.497 79.5692 147.434 78.378Z" fill="#E2D5E4"/>

<defs>
<filter id="filter0_d" x="26" y="10" width="169.89" height="220.401" filterUnits="userSpaceOnUse" color-interpolation-filters="sRGB">
<feFlood flood-opacity="0" result="BackgroundImageFix"/>
<feColorMatrix in="SourceAlpha" type="matrix" values="0 0 0 0 0 0 0 0 0 0 0 0 0 0 0 0 0 0 127 0"/>
<feOffset dy="4"/>
<feGaussianBlur stdDeviation="2"/>
<feColorMatrix type="matrix" values="0 0 0 0 0 0 0 0 0 0 0 0 0 0 0 0 0 0 0.25 0"/>
<feBlend mode="normal" in2="BackgroundImageFix" result="effect1_dropShadow"/>
<feBlend mode="normal" in="SourceGraphic" in2="effect1_dropShadow" result="shape"/>
</filter>
<filter id="filter1_d" x="0" y="0" width="221.89" height="272.401" filterUnits="userSpaceOnUse" color-interpolation-filters="sRGB">
<feFlood flood-opacity="0" result="BackgroundImageFix"/>
<feColorMatrix in="SourceAlpha" type="matrix" values="0 0 0 0 0 0 0 0 0 0 0 0 0 0 0 0 0 0 127 0"/>
<feOffset dy="20"/>
<feGaussianBlur stdDeviation="15"/>
<feColorMatrix type="matrix" values="0 0 0 0 0.886275 0 0 0 0 0.835294 0 0 0 0 0.894118 0 0 0 1 0"/>
<feBlend mode="normal" in2="BackgroundImageFix" result="effect1_dropShadow"/>
<feBlend mode="normal" in="SourceGraphic" in2="effect1_dropShadow" result="shape"/>
</filter>
</defs>
</svg>
