<svg width="26" height="20" viewBox="0 0 26 20" fill="none" xmlns="http://www.w3.org/2000/svg">
<path d="M5 2H21V0H5V2ZM24 5V15H26V5H24ZM21 18H5V20H21V18ZM2 15V5H0V15H2ZM5 18C3.34315 18 2 16.6569 2 15H0C0 17.7614 2.23858 20 5 20V18ZM24 15C24 16.6569 22.6569 18 21 18V20C23.7614 20 26 17.7614 26 15H24ZM21 2C22.6569 2 24 3.34315 24 5H26C26 2.23858 23.7614 0 21 0V2ZM5 0C2.23858 0 0 2.23858 0 5H2C2 3.34315 3.34315 2 5 2V0ZM0 6C0 7.37539 0.471096 8.48328 1.34558 9.30702C2.1855 10.0982 3.31947 10.5539 4.52984 10.827C6.93018 11.3688 10.0717 11.2795 13.0312 11.187C16.0789 11.0918 18.9439 10.9927 21.0558 11.4107C22.1043 11.6182 22.8451 11.9326 23.3122 12.3392C23.7363 12.7085 24 13.2078 24 14H26C26 12.6672 25.5137 11.604 24.6253 10.8307C23.7799 10.0947 22.6457 9.68653 21.4442 9.44872C19.0561 8.97608 15.9211 9.09573 12.9688 9.18799C9.9283 9.283 7.06982 9.34998 4.97016 8.8761C3.93053 8.64146 3.1895 8.29635 2.71692 7.85119C2.2789 7.43859 2 6.87461 2 6H0Z" fill="#DF2527"/>
</svg>
