<svg width="40" height="38" viewBox="0 0 40 38" fill="none" xmlns="http://www.w3.org/2000/svg">
<path d="M14.4542 13.2569L31.8409 8.59817L34.6879 19.2234C34.8309 19.7568 34.5143 20.3052 33.9808 20.4481L18.526 24.5892C17.9925 24.7321 17.4442 24.4156 17.3012 23.8821L14.4542 13.2569Z" stroke="#DF2527" stroke-width="2"/>
<path d="M11.7458 10.8767L32.9962 5.18269L34.0315 9.04639L12.7811 14.7404L11.7458 10.8767Z" fill="#DF2527"/>
<path d="M21.7334 13.377L25.5971 12.3417L26.6324 16.2054L24.1829 14.7912L22.7687 17.2407L21.7334 13.377Z" fill="#DF2527"/>
<path d="M8.51997 6.56475L6.58812 7.08238L2.24146 8.24707L2.75909 10.1789L7.10576 9.01424L12.7998 30.2646L13.3174 32.1965L15.2493 31.6788L36.9826 25.8554L36.465 23.9235L14.7316 29.747L9.03761 8.4966L8.51997 6.56475Z" fill="#DF2527"/>
<circle cx="14.0245" cy="30.9717" r="4" transform="rotate(-15 14.0245 30.9717)" fill="white" stroke="#DF2527" stroke-width="2"/>
<circle cx="2.6296" cy="9.69591" r="1.5" transform="rotate(-15 2.6296 9.69591)" fill="#DF2527"/>
<circle cx="36.5942" cy="24.4064" r="1.5" transform="rotate(-15 36.5942 24.4064)" fill="#DF2527"/>
</svg>
