<svg width="20" height="11" viewBox="0 0 20 11" fill="none" xmlns="http://www.w3.org/2000/svg">
<path d="M16.8303 6.9943C17.479 7.62381 18.1637 8.21609 18.7455 8.90908C19.0025 9.21704 19.2458 9.53483 19.4319 9.89221C19.6957 10.4003 19.4568 10.9593 18.9985 10.9897L16.1496 10.9884C15.4148 11.049 14.8287 10.755 14.3358 10.2556C13.9413 9.85626 13.5761 9.43124 13.1968 9.01842C13.0413 8.84969 12.8786 8.69092 12.6841 8.56543C12.2952 8.31451 11.9576 8.39133 11.7354 8.79451C11.509 9.20458 11.4577 9.65866 11.4355 10.1157C11.405 10.7825 11.2022 10.9578 10.5283 10.9883C9.08818 11.0558 7.72142 10.8393 6.45175 10.1171C5.33236 9.48054 4.46432 8.58184 3.70879 7.56442C2.23776 5.58328 1.11124 3.40634 0.0987622 1.1684C-0.129138 0.66419 0.0375306 0.393532 0.597225 0.383953C1.52662 0.366007 2.45589 0.367284 3.38638 0.382675C3.76411 0.388168 4.01418 0.603519 4.16003 0.958221C4.66286 2.18716 5.27813 3.35639 6.05043 4.44017C6.2561 4.72871 6.46582 5.01725 6.76446 5.22034C7.09484 5.44521 7.34639 5.37068 7.50181 5.00486C7.60044 4.77291 7.64361 4.52307 7.66584 4.27464C7.73948 3.41994 7.74918 2.56671 7.62003 1.71501C7.54075 1.18347 7.23953 0.83937 6.70593 0.738783C6.43363 0.6875 6.47417 0.586786 6.60602 0.432298C6.83501 0.165856 7.05038 0 7.47971 0H10.6994C11.2063 0.0994369 11.3189 0.325772 11.3882 0.832728L11.391 4.38761C11.3855 4.58387 11.4896 5.16625 11.8453 5.29615C12.1299 5.38862 12.3175 5.16229 12.4883 4.98289C13.2592 4.16964 13.8094 3.20855 14.3009 2.21335C14.519 1.77575 14.7066 1.32129 14.8883 0.867215C15.023 0.530266 15.2343 0.364474 15.6162 0.371819L18.715 0.374565C18.8068 0.374565 18.8998 0.375906 18.9888 0.391042C19.511 0.479494 19.6541 0.702764 19.4928 1.20959C19.2387 2.00477 18.7443 2.66742 18.2608 3.33315C17.7441 4.04389 17.1914 4.73031 16.6789 5.44527C16.2081 6.09816 16.2455 6.42725 16.8303 6.9943Z" fill="#fff"/>
</svg>
