<svg width="235" height="235" viewBox="0 0 235 235" fill="none" xmlns="http://www.w3.org/2000/svg"><path fill-rule="evenodd" clip-rule="evenodd" d="M171.32 68.077c-1.527-.881-3.239-1.6-5.073-2.25-1.815-9.67-7.65-18.532-16.821-23.827-9.171-5.295-19.764-5.918-29.046-2.654-1.48-1.264-2.959-2.387-4.485-3.269-15.281-8.822-34.89-3.568-43.713 11.713-6.046 10.471-5.637 23.4.916 33.458l-22.03 38.045a11.793 11.793 0 0 0-1.194 9.011 11.787 11.787 0 0 0 5.531 7.215l60.051 34.67c5.669 3.273 12.941 1.324 16.214-4.344l22.01-38.122c11.96.613 23.328-5.496 29.353-15.933 8.822-15.28 3.568-34.89-11.713-43.713z" fill="#fff" filter="url(#a)"/><path d="M93.874 80.22c.794-1.377.275-3.161-1.161-3.99-1.436-.83-3.241-.387-4.036.99-3.775 6.537-1.432 19.86-1.154 21.359.17.895.736 1.637 1.487 2.071a3.076 3.076 0 0 0 1.972.386c1.613-.233 2.678-1.709 2.384-3.298-.907-4.862-1.573-13.915.508-17.519zm54.264 28.009c-1.436-.829-3.241-.386-4.036.99-2.073 3.591-10.251 7.548-14.92 9.201-1.521.538-2.265 2.2-1.659 3.713.263.657.74 1.179 1.321 1.515.75.433 1.674.551 2.534.251 1.438-.509 14.146-5.141 17.921-11.68.795-1.376.275-3.16-1.161-3.99zM120.426 92.23c-1.436-.83-3.241-.387-4.036.99l-8.625 14.938c-.794 1.376-.275 3.161 1.161 3.99 1.436.829 3.241.386 4.035-.99l8.625-14.939c.794-1.376.275-3.16-1.16-3.99z" fill="#E2D5E4"/><defs><filter id="a" x="0" y="0" width="234.851" height="234.851" filterUnits="userSpaceOnUse" color-interpolation-filters="sRGB"><feFlood flood-opacity="0" result="BackgroundImageFix"/><feColorMatrix in="SourceAlpha" values="0 0 0 0 0 0 0 0 0 0 0 0 0 0 0 0 0 0 127 0"/><feOffset dy="20"/><feGaussianBlur stdDeviation="15"/><feColorMatrix values="0 0 0 0 0.886275 0 0 0 0 0.835294 0 0 0 0 0.894118 0 0 0 1 0"/><feBlend in2="BackgroundImageFix" result="effect1_dropShadow"/><feBlend in="SourceGraphic" in2="effect1_dropShadow" result="shape"/></filter></defs></svg>