<svg width="27" height="27" viewBox="0 0 27 27" fill="none" xmlns="http://www.w3.org/2000/svg"><mask id="a" fill="#fff"><path d="M24.335.293a1 1 0 1 1 1.414 1.414L1.707 25.75a1 1 0 0 1-1.414-1.414L24.335.293z"/><path d="M25.749 24.334a1 1 0 1 1-1.415 1.415L.293 1.707A1 1 0 0 1 1.707.293L25.75 24.334z"/></mask><path d="M24.335.293a1 1 0 1 1 1.414 1.414L1.707 25.75a1 1 0 0 1-1.414-1.414L24.335.293z" fill="#DF2527"/><path d="M25.749 24.334a1 1 0 1 1-1.415 1.415L.293 1.707A1 1 0 0 1 1.707.293L25.75 24.334z" fill="#DF2527"/><path d="M.293 24.335l-.707-.707.707.707zm1.414 1.414L1 25.042l.707.707zM25.75 1.707l.707.707-.707-.707zM24.335.293l.707.707-.707-.707zm-22.628 0L1 1l.707-.707zM.293 1.707L1 1l-.707.707zM24.334 25.75l-.707.707.707-.707zm1.415-1.415l.707-.707-.707.707zM25.042 1L1 25.042l1.414 1.414L26.456 2.414 25.042 1zM1 25.042L25.042 1 23.628-.414-.414 23.628 1 25.042zm0 0l-1.414-1.415a2 2 0 0 0 0 2.829L1 25.042zm0 0l-1.414 1.414a2 2 0 0 0 2.828 0L1 25.042zM25.042 1l1.414 1.414a2 2 0 0 0 0-2.828L25.042 1zm1.414-1.414a2 2 0 0 0-2.828 0L25.042 1l1.414-1.414zm-1.414 25.456L1 1-.414 2.414l24.041 24.042 1.415-1.414zM1 1l24.042 24.042 1.414-1.415L2.414-.414 1 1zm0 0L2.414-.414a2 2 0 0 0-2.828 0L1 1zm0 0L-.414-.414a2 2 0 0 0 0 2.828L1 1zm24.042 24.042l-1.415 1.414a2 2 0 0 0 2.829 0l-1.414-1.414zm1.414 1.414a2 2 0 0 0 0-2.829l-1.414 1.415 1.414 1.414z" fill="#DF2527" mask="url(#a)"/></svg>