<svg width="16" height="16" viewBox="0 0 16 16" fill="none" xmlns="http://www.w3.org/2000/svg"><path fill-rule="evenodd" clip-rule="evenodd" d="M11.669 0H4.33A4.336 4.336 0 0 0 0 4.331v7.338A4.336 4.336 0 0 0 4.331 16h7.338A4.336 4.336 0 0 0 16 11.67V4.33A4.336 4.336 0 0 0 11.669 0zM8 12.375A4.38 4.38 0 0 1 3.625 8 4.38 4.38 0 0 1 8 3.625 4.38 4.38 0 0 1 12.375 8 4.38 4.38 0 0 1 8 12.375zm3.187-9.01a1.294 1.294 0 0 0 2.585 0c0-.714-.58-1.294-1.293-1.294-.712 0-1.292.58-1.292 1.293z" fill="#141312"/></svg>