<svg width="283" height="283" viewBox="0 0 283 283" fill="none" xmlns="http://www.w3.org/2000/svg"><path fill-rule="evenodd" clip-rule="evenodd" d="M86.011 20.079L43.727 62.364c-7.176 7.175-7.144 18.877.07 26.092l81.759 81.759 41.583 41.582c10.482 10.482 27.159 11.773 37.97 2.941a27.627 27.627 0 0 0 10.122-20.067 27.877 27.877 0 0 0-8.127-20.973c-4.357-4.356-9.899-7.073-16.03-7.854-2.527-.322-6.115-1.281-8.84-4.005l-20.88-20.881 22.768-22.768c8.491-8.491-20.978-40.495-39.297-58.814C126.506 41.057 94.502 11.59 86.011 20.08z" fill="#fff" filter="url(#a)"/><path d="M190.353 195.789a4.5 4.5 0 1 0-6.363-6.363 4.5 4.5 0 0 0 6.363 6.363zM62.714 67.96c-3.703 3.703-3.703 9.732 0 13.435 3.703 3.703 9.732 3.703 13.435 0 3.703-3.703 3.703-9.732 0-13.435-3.703-3.703-9.731-3.703-13.435 0z" fill="#E2D5E4"/><defs><filter id="a" x=".716" y=".321" width="282.032" height="282.032" filterUnits="userSpaceOnUse" color-interpolation-filters="sRGB"><feFlood flood-opacity="0" result="BackgroundImageFix"/><feColorMatrix in="SourceAlpha" values="0 0 0 0 0 0 0 0 0 0 0 0 0 0 0 0 0 0 127 0"/><feOffset dy="20"/><feGaussianBlur stdDeviation="15"/><feColorMatrix values="0 0 0 0 0.886275 0 0 0 0 0.835294 0 0 0 0 0.894118 0 0 0 1 0"/><feBlend in2="BackgroundImageFix" result="effect1_dropShadow"/><feBlend in="SourceGraphic" in2="effect1_dropShadow" result="shape"/></filter></defs></svg>