<svg width="189" height="232" viewBox="0 0 189 232" fill="none" xmlns="http://www.w3.org/2000/svg"><path fill-rule="evenodd" clip-rule="evenodd" d="M158.632 162.089l-19.298-83.645a14.27 14.27 0 0 0-13.97-11.11h-16.531V53h3.584c21.734 0 39.416-17.682 39.416-39.417A3.58 3.58 0 0 0 148.25 10H40.75a3.581 3.581 0 0 0-3.583 3.583C37.167 35.318 54.849 53 76.583 53h3.584v14.333h-16.53a14.27 14.27 0 0 0-13.97 11.11L30.09 163.28a3.66 3.66 0 0 0-.091.804v3.584C30 175.572 36.428 182 44.333 182h100.334c7.905 0 14.333-6.428 14.333-14.333v-2.355c0-1.099-.126-2.187-.368-3.223z" fill="#fff" filter="url(#a)"/><path fill-rule="evenodd" clip-rule="evenodd" d="M59 124.5C59 104.926 74.926 89 94.5 89c19.574 0 35.5 15.926 35.5 35.5 0 19.574-15.927 35.5-35.5 35.5S59 144.074 59 124.5zm7 0c0 15.715 12.785 28.5 28.5 28.5s28.5-12.786 28.5-28.5c0-15.715-12.785-28.5-28.5-28.5S66 108.785 66 124.5z" fill="#E2D5E4"/><path d="M47.5 168a3.5 3.5 0 1 0 0-7 3.5 3.5 0 0 0 0 7zm47-65c-1.754 0-3.274 1.175-3.658 2.829C89.406 111.999 87 122.658 87 124.75c0 3.997 3.366 7.25 7.5 7.25s7.5-3.253 7.5-7.25c0-2.092-2.406-12.751-3.842-18.921-.384-1.653-1.904-2.829-3.658-2.829z" fill="#E2D5E4"/><defs><filter id="a" x="0" y="0" width="189" height="232" filterUnits="userSpaceOnUse" color-interpolation-filters="sRGB"><feFlood flood-opacity="0" result="BackgroundImageFix"/><feColorMatrix in="SourceAlpha" values="0 0 0 0 0 0 0 0 0 0 0 0 0 0 0 0 0 0 127 0"/><feOffset dy="20"/><feGaussianBlur stdDeviation="15"/><feColorMatrix values="0 0 0 0 0.886275 0 0 0 0 0.835294 0 0 0 0 0.894118 0 0 0 1 0"/><feBlend in2="BackgroundImageFix" result="effect1_dropShadow"/><feBlend in="SourceGraphic" in2="effect1_dropShadow" result="shape"/></filter></defs></svg>