<svg width="81" height="53" viewBox="0 0 81 53" fill="none" xmlns="http://www.w3.org/2000/svg"><path fill-rule="evenodd" clip-rule="evenodd" d="M58.306 7.228L25.428 7.2c-9.465 0-12.756-2.598-13.918-4.407-.626-.977-1.552-1.132-2.412-.45C6.478 4.432 2 9.04 2 16.873c0 13.472 10.235 19.054 20.693 19.054l32.88.028c9.463 0 12.756 2.597 13.917 4.406.627.976 1.553 1.132 2.412.448C74.522 38.723 79 34.113 79 26.281 79 12.809 68.766 7.228 58.306 7.228z" fill="#DF2527"/><path d="M12.351 2.253c.895 1.393 3.762 3.948 13.077 3.948l32.878.027h.001L12.351 2.253zm0 0c-.418-.652-1.02-1.152-1.781-1.29-.768-.14-1.499.126-2.094.599m3.875.691l-3.876-.69m0 0C5.737 3.742 1 8.607 1 16.871m7.475-15.31L1 16.872m0 0c0 7.019 2.681 12.079 6.802 15.36M1 16.873l6.802 15.36m0 0c4.087 3.257 9.5 4.694 14.89 4.694l-14.89-4.693zm64.722 9.359l-.623-.783-49.208-3.882 32.88.028c9.313 0 12.181 2.553 13.076 3.947.419.651 1.02 1.152 1.782 1.29.768.139 1.498-.127 2.093-.6z" stroke="#fff" stroke-opacity=".2" stroke-width="2"/><path fill-rule="evenodd" clip-rule="evenodd" d="M20.75 25.11v-8.614c0-.305.088-.547.265-.724.178-.176.416-.265.716-.265h4.553a.89.89 0 0 1 .654.254.89.89 0 0 1 .253.654.884.884 0 0 1-.253.652.883.883 0 0 1-.654.256h-3.57v2.569h2.796c.266 0 .483.084.653.253.17.17.255.389.255.653a.88.88 0 0 1-.255.654.88.88 0 0 1-.653.255h-2.797v2.57h3.719a.88.88 0 0 1 .652.254.88.88 0 0 1 .255.653.88.88 0 0 1-.255.653.883.883 0 0 1-.652.255H21.73c-.3 0-.538-.088-.716-.267-.177-.176-.265-.415-.265-.716zm-2.033-9.331c-.174-.178-.414-.266-.72-.266H12.63c-.3 0-.537.088-.715.266-.177.176-.267.416-.267.715v8.66c0 .3.09.538.268.716.177.178.415.267.714.267.301 0 .54-.09.717-.267.178-.178.265-.416.265-.716v-7.831h3.404v7.83c0 .302.088.54.262.718.175.177.414.266.72.266.305 0 .545-.09.72-.267.175-.178.262-.416.262-.716v-8.66c0-.299-.087-.539-.263-.715zm9.518 1.288a.884.884 0 0 1-.255-.652c0-.267.086-.484.255-.654a.883.883 0 0 1 .653-.255h5.743a.88.88 0 0 1 .652.255.88.88 0 0 1 .257.654.877.877 0 0 1-.909.908h-1.889v7.834c0 .299-.088.537-.263.715-.174.177-.415.266-.72.266s-.544-.089-.719-.266c-.175-.178-.262-.416-.262-.715v-7.834h-1.89a.879.879 0 0 1-.653-.256zm10.117 3.887h1.357c.57 0 1.016-.16 1.336-.48.32-.32.48-.765.48-1.335 0-.572-.16-1.016-.48-1.337-.32-.319-.765-.48-1.336-.48H38.35v3.632zm-1.965 4.177v-8.635c0-.305.088-.547.266-.724.177-.177.416-.264.715-.264h2.34c1.122 0 2.046.347 2.773 1.044.724.695 1.089 1.557 1.089 2.587 0 1.028-.365 1.889-1.089 2.583-.727.694-1.65 1.04-2.773 1.04h-1.357v2.369c0 .3-.089.538-.267.717-.176.177-.415.265-.716.265-.3 0-.538-.088-.715-.265-.178-.18-.266-.416-.266-.717zm16.12.053c0-.237.11-.54.332-.908l2.31-3.624-2.09-3.33c-.22-.369-.33-.672-.33-.908 0-.265.098-.495.293-.69a.958.958 0 0 1 .695-.29.93.93 0 0 1 .545.161c.158.107.277.23.356.37l1.712 2.87h.059l1.705-2.87c.078-.14.198-.262.357-.37a.952.952 0 0 1 .551-.161c.265 0 .496.096.69.29a.943.943 0 0 1 .292.69c0 .236-.11.54-.333.909l-2.08 3.329 2.31 3.624c.22.368.331.671.331.908a.945.945 0 0 1-.291.69.946.946 0 0 1-.69.292.968.968 0 0 1-.55-.159 1.119 1.119 0 0 1-.359-.365l-1.933-3.182h-.059l-1.934 3.182a1.114 1.114 0 0 1-.358.365.97.97 0 0 1-.55.159.947.947 0 0 1-.69-.292.944.944 0 0 1-.291-.69zm11.435-3.361h2.273l-1.091-3.86h-.09l-1.092 3.86zM60.98 25.14c0-.157.05-.409.154-.754l2.507-7.854a1.57 1.57 0 0 1 .527-.77c.248-.194.552-.292.911-.292.36 0 .662.098.909.291.245.196.42.452.523.772l2.585 7.878c.098.33.147.58.147.752a.943.943 0 0 1-.292.69.948.948 0 0 1-.69.294c-.501 0-.854-.33-1.056-.984l-.465-1.449h-3.32l-.397 1.425c-.201.655-.554.982-1.055.982a.958.958 0 0 1-.694-.292.936.936 0 0 1-.294-.69zm-9.086-8.761a.917.917 0 0 0-.34-.642.919.919 0 0 0-.695-.22c-.26.022-.622.16-.861.694L48.07 20.57l-2.068-4.36c-.24-.531-.603-.67-.863-.693a.915.915 0 0 0-.692.221.913.913 0 0 0-.34.642c-.022.24.04.507.182.8l2.728 5.62-.306.708c-.097.234-.213.402-.348.506-.108.085-.272.132-.467.14l-.468-.015c-.582.001-.857.273-.985.501a.913.913 0 0 0-.082.729c.234.764 1.282.764 1.626.764.803 0 1.404-.367 1.633-.584.357-.336.642-.756.848-1.24l3.244-7.128c.141-.295.203-.562.181-.801zm9.629 18.077H13.119v8.078c0 5.444 4.75 9.873 10.589 9.873H72.11V44.33c0-5.445-4.75-9.873-10.588-9.873z" fill="#FEFEFE"/><path fill-rule="evenodd" clip-rule="evenodd" d="M71.14 51.501H23.709c-5.304 0-9.62-4.022-9.62-8.968V35.36h47.434c5.302 0 9.617 4.024 9.617 8.968V51.5zM15.06 36.265v6.268c0 4.446 3.88 8.064 8.648 8.064h46.46V44.33c0-4.445-3.879-8.064-8.646-8.064H15.061z" fill="#13110C"/><path fill-rule="evenodd" clip-rule="evenodd" d="M29.78 47.724c-.622 0-1.054-.347-1.054-1.091 0-1.044-.181-4.055-.312-4.87-.11.264-.265.6-.386.972l-1.15 3.525c-.192.589-.444 1.14-.671 1.464h-.444c-.54 0-1.02-.42-1.32-1.308l-1.177-3.466c-.142-.42-.334-.91-.454-1.199-.216 1.176-.36 4.474-.36 5.973h-.577c-.61 0-1.03-.395-1.03-1.091 0-1.836.359-5.494.659-7.125h.349c1.14 0 1.942.517 2.255 1.393l1.137 3.212c.253.698.397 1.188.47 1.559.06-.31.142-.562.227-.84l.947-2.913c.422-1.307.948-2.135 1.285-2.411h.19c.913 0 1.513.576 1.644 1.703.156 1.296.395 4.87.395 6.513h-.623zm4.96-6.704c-.478.85-.995 2.157-1.271 3.298h2.544c-.276-1.152-.84-2.531-1.273-3.298zm2.977 6.704c-.684 0-1.045-.396-1.106-.791-.07-.54-.142-.961-.228-1.307H33.11a31.597 31.597 0 0 0-.43 2.098h-.638c-.538 0-.756-.287-.756-.791 0-1.188 1.536-6.021 2.795-7.425h.672c.659 0 1.104.36 1.33.757.745 1.33 1.98 4.869 2.305 7.459h-.67zm7.756-6.021c-.516-.671-1.546-.887-2.255-.887-1.464 0-2.555 1.055-2.555 2.65 0 1.932 1.068 2.902 2.614 2.902.817 0 1.729-.323 2.172-.79h.06v.612c0 1.127-1.309 1.606-2.445 1.606-2.185 0-4.056-1.632-4.056-4.09 0-2.53 1.69-4.317 4.197-4.317 1.344 0 2.327.551 2.327 1.68v.634h-.06zm5.789-.756h-1.51v6.777h-.66c-.575 0-.994-.372-.994-1.103v-5.674h-2.366v-.539c0-.396.325-.9.997-.9h5.517v.517c0 .395-.442.922-.984.922zm7.505 5.819c-.011.66-.347 1.017-1.787 1.017h-.876c-2.002 0-3.058-1.102-3.058-3.2v-1.524c0-.78.06-1.656.157-2.314.13-.985.587-1.237 1.259-1.237h4.294v.551c0 .577-.348.864-1.105.864h-2.818c-.084.601-.12 1.404-.12 1.92h3.166v.587c0 .54-.334.756-.994.756h-2.172v.48c0 1.428.468 1.702 1.74 1.702h.527c.6 0 1.21-.048 1.8-.18l-.013.578zm3.907-5.926h-.526c-.205 0-.492.072-.684.107v2.328c.287.083.744.143 1.163.143.84 0 1.296-.48 1.296-1.27 0-.937-.385-1.308-1.249-1.308zm.169 3.971c-.575 0-1.043-.098-1.38-.276v3.19h-.647c-.456 0-.995-.3-.995-1.176v-6.717c.455-.168 1.546-.383 2.134-.383h.924c1.595 0 2.735.912 2.735 2.554 0 1.74-1.2 2.808-2.771 2.808z" fill="#1D1D1B"/></svg>