<svg width="150" height="100" viewBox="0 0 150 100" fill="none" xmlns="http://www.w3.org/2000/svg"><path fill-rule="evenodd" clip-rule="evenodd" d="M109.522 11.239l-63.951-.053c-18.411 0-24.812-5.054-27.073-8.572-1.218-1.9-3.02-2.202-4.691-.873C8.709 5.798 0 14.76 0 29.997c0 26.205 19.908 37.062 40.251 37.062l63.956.055c18.406 0 24.81 5.051 27.07 8.571 1.22 1.898 3.02 2.2 4.69.871 5.097-4.056 13.807-13.022 13.807-28.257 0-26.204-19.905-37.06-40.252-37.06z" fill="#DF2527"/><path fill-rule="evenodd" clip-rule="evenodd" d="M36.471 46.02V29.266c0-.594.17-1.064.515-1.408.346-.343.81-.515 1.393-.515h8.856c.516 0 .94.164 1.272.492.328.332.492.755.492 1.273 0 .516-.164.94-.492 1.268-.331.333-.756.498-1.272.498H40.29v4.997h5.44c.518 0 .94.164 1.27.493.331.332.496.756.496 1.27 0 .519-.165.943-.496 1.272-.33.331-.752.496-1.27.496h-5.44v4.997h7.233c.515 0 .939.164 1.268.496.332.328.496.753.496 1.27s-.164.942-.496 1.27c-.33.33-.753.497-1.268.497h-9.145c-.582 0-1.046-.173-1.392-.52-.345-.343-.515-.807-.515-1.392zm-3.953-18.149c-.34-.345-.807-.517-1.4-.517h-10.44c-.583 0-1.046.172-1.39.517-.345.344-.52.81-.52 1.392v16.843c0 .585.175 1.048.52 1.395.344.344.807.517 1.39.517.585 0 1.05-.173 1.395-.517.344-.347.514-.81.514-1.395V30.874h6.622v15.232c0 .585.17 1.048.51 1.395.339.344.804.517 1.399.517.593 0 1.06-.173 1.4-.517.34-.347.51-.81.51-1.395V29.263c0-.582-.17-1.048-.51-1.392zm18.512 2.506c-.328-.329-.495-.752-.495-1.269 0-.518.167-.942.496-1.272.328-.33.754-.495 1.27-.495h11.17c.52 0 .94.165 1.27.495.332.33.5.754.5 1.272 0 .517-.168.94-.5 1.269-.33.332-.75.498-1.27.498h-3.673v15.237c0 .582-.172 1.045-.513 1.392-.338.344-.806.516-1.4.516-.592 0-1.058-.172-1.398-.517-.34-.346-.51-.809-.51-1.391V30.875H52.3c-.515 0-.941-.166-1.27-.498zm19.679 7.56h2.64c1.11 0 1.976-.312 2.599-.933.622-.624.934-1.488.934-2.598 0-1.112-.312-1.976-.934-2.599-.623-.621-1.488-.933-2.6-.933h-2.64v7.063zm-3.822 8.125V29.266c0-.594.173-1.064.518-1.409.345-.344.81-.514 1.392-.514h4.551c2.183 0 3.98.675 5.394 2.03 1.408 1.354 2.118 3.03 2.118 5.033 0 2-.71 3.675-2.118 5.024-1.415 1.35-3.211 2.025-5.394 2.025h-2.64v4.607c0 .585-.172 1.046-.519 1.395-.343.344-.807.516-1.392.516-.583 0-1.047-.172-1.392-.516-.345-.349-.518-.81-.518-1.395zm31.354.103c0-.46.214-1.05.646-1.765l4.492-7.05-4.063-6.477c-.43-.717-.644-1.307-.644-1.766 0-.517.192-.964.572-1.34.386-.38.834-.567 1.351-.567.402 0 .757.102 1.061.314.308.209.538.448.692.718l3.33 5.585h.114l3.317-5.585c.152-.27.386-.51.695-.718a1.852 1.852 0 0 1 1.072-.314c.515 0 .964.187 1.342.566.377.377.567.824.567 1.34 0 .46-.214 1.05-.646 1.767l-4.049 6.476 4.495 7.05c.429.715.644 1.305.644 1.766 0 .517-.189.964-.566 1.343a1.84 1.84 0 0 1-1.343.566 1.88 1.88 0 0 1-1.068-.308 2.174 2.174 0 0 1-.7-.71l-3.76-6.19h-.114l-3.763 6.19a2.159 2.159 0 0 1-.696.71 1.886 1.886 0 0 1-1.069.309c-.518 0-.965-.19-1.344-.567a1.836 1.836 0 0 1-.565-1.343zm22.245-6.536h4.421l-2.123-7.509h-.173l-2.125 7.509zm-5.764 6.448c0-.305.099-.795.301-1.466l4.875-15.276a3.06 3.06 0 0 1 1.027-1.5c.482-.376 1.073-.567 1.771-.567.701 0 1.288.191 1.768.567.478.38.818.88 1.018 1.5l5.027 15.325c.191.64.287 1.128.287 1.463 0 .517-.189.965-.568 1.343-.378.377-.826.57-1.344.57-.974 0-1.659-.64-2.052-1.913l-.904-2.818h-6.46l-.772 2.772c-.39 1.273-1.076 1.908-2.051 1.908-.517 0-.968-.19-1.35-.566a1.819 1.819 0 0 1-.573-1.342zM97.048 29.038c-.045-.5-.268-.92-.661-1.248a1.788 1.788 0 0 0-1.351-.43c-.506.045-1.21.314-1.676 1.352l-3.75 8.476-4.022-8.481c-.466-1.033-1.173-1.302-1.678-1.347-.5-.044-.952.1-1.346.43a1.776 1.776 0 0 0-.662 1.248c-.042.466.077.986.354 1.558l5.306 10.931-.596 1.377c-.187.454-.414.782-.676.984-.21.164-.528.257-.908.272l-.91-.03c-1.133.003-1.668.531-1.916.976a1.777 1.777 0 0 0-.16 1.416c.456 1.487 2.493 1.487 3.162 1.487 1.562 0 2.732-.713 3.178-1.136.694-.652 1.249-1.47 1.649-2.412l6.31-13.865c.275-.573.395-1.092.353-1.558zM115.78 64.2H21.629v15.714c0 10.588 9.24 19.204 20.596 19.204h94.149V83.405c0-10.592-9.239-19.205-20.594-19.205z" fill="#FEFEFE"/><path fill-rule="evenodd" clip-rule="evenodd" d="M134.485 97.355H42.227c-10.316 0-18.71-7.824-18.71-17.444V65.96h92.263c10.314 0 18.705 7.826 18.705 17.443v13.951zM25.405 67.72v12.192c0 8.649 7.546 15.686 16.822 15.686h90.371V83.404c0-8.646-7.545-15.685-16.818-15.685H25.406z" fill="#13110C"/><path fill-rule="evenodd" clip-rule="evenodd" d="M54.037 90.008c-1.21 0-2.05-.675-2.05-2.123 0-2.03-.353-7.887-.608-9.472-.213.513-.516 1.167-.75 1.892l-2.237 6.855c-.374 1.146-.864 2.217-1.306 2.848h-.863c-1.05 0-1.984-.815-2.567-2.543l-2.29-6.742a41.04 41.04 0 0 0-.884-2.332c-.42 2.286-.7 8.703-.7 11.617H38.66c-1.188 0-2.004-.768-2.004-2.123 0-3.57.698-10.685 1.282-13.858h.68c2.215 0 3.776 1.005 4.385 2.71l2.211 6.248c.493 1.358.773 2.31.916 3.032.115-.604.275-1.094.44-1.633l1.843-5.667c.82-2.543 1.843-4.153 2.499-4.69h.368c1.779 0 2.944 1.121 3.2 3.313.303 2.521.769 9.473.769 12.668h-1.212zm9.647-13.039c-.93 1.653-1.936 4.195-2.473 6.415h4.948c-.536-2.241-1.635-4.924-2.475-6.415zm5.79 13.04c-1.331 0-2.032-.772-2.15-1.54-.138-1.05-.278-1.869-.445-2.541h-6.366a61.62 61.62 0 0 0-.838 4.08h-1.239c-1.047 0-1.47-.559-1.47-1.539 0-2.31 2.986-11.712 5.436-14.442h1.307c1.281 0 2.148.7 2.588 1.472 1.448 2.588 3.85 9.471 4.483 14.51h-1.306zM84.56 78.297c-1.003-1.306-3.006-1.725-4.386-1.725-2.847 0-4.968 2.052-4.968 5.153 0 3.758 2.077 5.646 5.083 5.646 1.59 0 3.363-.629 4.225-1.538h.118v1.19c0 2.193-2.547 3.125-4.758 3.125-4.249 0-7.888-3.173-7.888-7.956 0-4.922 3.287-8.396 8.164-8.396 2.614 0 4.526 1.072 4.526 3.266v1.235h-.115zm11.26-1.47h-2.934v13.181h-1.287c-1.117 0-1.933-.723-1.933-2.146V76.827h-4.6v-1.05c0-.77.632-1.75 1.937-1.75h10.732v1.006c0 .768-.86 1.794-1.914 1.794zm14.6 11.318c-.022 1.283-.676 1.978-3.476 1.978h-1.703c-3.895 0-5.95-2.143-5.95-6.226v-2.963c0-1.518.117-3.22.305-4.501.255-1.915 1.144-2.406 2.449-2.406h8.353V75.1c0 1.123-.677 1.68-2.148 1.68h-5.482c-.163 1.17-.233 2.731-.233 3.734h6.158v1.144c0 1.05-.65 1.47-1.934 1.47h-4.224v.932c0 2.78.91 3.312 3.383 3.312h1.026c1.167 0 2.355-.094 3.502-.35l-.026 1.124zm7.6-11.527h-1.024c-.399 0-.957.14-1.331.209v4.527c.558.162 1.447.278 2.263.278 1.634 0 2.52-.932 2.52-2.472 0-1.82-.749-2.542-2.428-2.542zm.327 7.725c-1.118 0-2.027-.191-2.682-.538v6.203h-1.259c-.887 0-1.936-.58-1.936-2.286V74.657c.885-.326 3.007-.745 4.151-.745h1.798c3.101 0 5.319 1.774 5.319 4.969 0 3.382-2.333 5.462-5.391 5.462z" fill="#1D1D1B"/></svg>