<svg width="75" height="22" viewBox="0 0 75 22" fill="none" xmlns="http://www.w3.org/2000/svg"><path fill-rule="evenodd" clip-rule="evenodd" d="M70.929 21.999L75 0H4.07L0 22h70.929v-.001z" fill="#DA2C2C"/><path fill-rule="evenodd" clip-rule="evenodd" d="M11.452 10.47l-.056-.632h-.115l-.119.634-1.335 7.146H7.915l2.563-13.714h1.854l.69 7.146.056.634h.116l.119-.634 1.335-7.147h1.912l-2.563 13.713h-1.855l-.69-7.145zm6.652-6.57h2.085l-2.562 13.715h-2.085L18.104 3.9zm4.605 6.567l-.056-.634h-.115l-.12.634-1.334 7.146h-1.912l2.563-13.715h1.855l.69 7.146.055.634h.116l.119-.634 1.337-7.147h1.912l-2.563 13.714h-1.855l-.692-7.144zm5.895-3.753c.123-.654.728-2.967 3.279-2.968 2.55-.002 2.29 2.312 2.169 2.965l-1.458 7.802c-.181.97-.723 3.245-3.33 3.246-2.606.001-2.296-2.275-2.115-3.245l.16-.858h2.086c-.346 1.847-.4 2.35.197 2.35.522 0 .722-.449.917-1.493l.48-2.575a2.365 2.365 0 0 1-1.105.336c-2.143 0-1.92-2.125-1.776-2.89l.496-2.67zm3.472-.599a.518.518 0 0 0-.522-.615.863.863 0 0 0-.753.616l-.742 3.974a.54.54 0 0 0 .522.615.807.807 0 0 0 .742-.56l.753-4.03zm5.953-.225H34.9l.373-1.997h5.253L40.15 5.91l-4.27 11.7h-2.163l4.312-11.72zm3.501-2h4.77l-.388 2.071h-2.684l-.673 3.601h1.93l-.41 2.2h-1.93l-.704 3.772h2.684l-.388 2.07h-4.77L41.531 3.89zm9.714-.003h2.027l-4.725 13.715H46.46l.4-13.714h2.028l-.367 7.538-.03.578h.116l.185-.578 2.452-7.539zm2.974 0h4.77L58.6 5.96h-2.685l-.673 3.601h1.931l-.41 2.2h-1.931l-.704 3.772h2.684l-.388 2.07h-4.77L54.22 3.889zm6.902 6.565l-.056-.634h-.115l-.119.634-1.337 7.147h-1.912l2.565-13.715h1.855l.692 7.146.057.635h.116l.119-.635 1.337-7.146h1.911L63.672 17.6h-1.855l-.696-7.147z" fill="#fff"/></svg>