<svg width="36" height="36" viewBox="0 0 36 36" fill="none" xmlns="http://www.w3.org/2000/svg"><path d="M17.55 1a.5.5 0 0 1 1 0v5.278l-.55.55-.45-.45V1zm0 7.731a.498.498 0 0 1 .096-.135L18 8.243l.354.353a.5.5 0 1 1-.804.573V8.73zm5.753-4.377L19.55 8.107V6.692l3.046-3.046a.5.5 0 1 1 .707.708zm-4.753 21.25a1.507 1.507 0 0 0-1-.035V10.38c.326.102.68.09 1-.035v15.258zm-2-18.811v1.414l-3.853-3.853a.5.5 0 0 1 .707-.708l3.146 3.147zm1.804 20.56l-.354.354-.354-.354a.498.498 0 0 1-.096-.134v-.438a.5.5 0 1 1 .803.572zm-1.804.39v1.414l-3.146 3.146a.5.5 0 0 1-.707-.707l3.853-3.853zm1 7.257v-5.429l.45-.45.55.55V35a.5.5 0 0 1-1 0zm5.046-2.697l-3.046-3.046v-1.414l3.753 3.753a.5.5 0 1 1-.707.707z" fill="#DF2527" stroke="#DF2527"/><path d="M35 17.55a.5.5 0 0 1 0 1h-5.278l-.55-.55.45-.45H35zm-7.731 0a.498.498 0 0 1 .135.096l.353.354-.353.354a.5.5 0 1 1-.573-.804h.438zm4.377 5.753l-3.753-3.753h1.415l3.046 3.046a.5.5 0 0 1-.708.707zm-21.25-4.753c.126-.32.137-.674.035-1H25.62c-.102.326-.09.68.035 1H10.396zm18.811-2h-1.414l3.853-3.853a.5.5 0 0 1 .708.707l-3.147 3.146zm-20.56 1.804L8.292 18l.353-.354a.498.498 0 0 1 .135-.096h.438a.498.498 0 0 1 .135.804.5.5 0 0 1-.708 0zm-.39-1.804H6.843l-3.146-3.146a.5.5 0 1 1 .707-.707l3.853 3.853zM1 17.55h5.429l.45.45-.55.55H1a.5.5 0 0 1 0-1zm2.697 5.046l3.046-3.046h1.414l-3.753 3.753a.5.5 0 1 1-.707-.707z" fill="#DF2527" stroke="#DF2527"/><rect x="23.707" y="11.636" width="1" height="17" rx=".5" transform="rotate(45 23.707 11.636)" fill="#DF2527" stroke="#DF2527"/><path d="M24.06 23.303a.5.5 0 1 1-.707.707L12.04 12.697a.5.5 0 0 1 .707-.707L24.06 23.303z" fill="#DF2527" stroke="#DF2527"/><circle cx="18.05" cy="18" r="4" fill="#fff" stroke="#DF2527" stroke-width="2"/></svg>