<svg width="13" height="18" viewBox="0 0 13 18" fill="none" xmlns="http://www.w3.org/2000/svg"><path fill-rule="evenodd" clip-rule="evenodd" d="M1.8 4.5C1.8 2.018 3.818 0 6.3 0s4.5 2.018 4.5 4.5S8.782 9 6.3 9a4.505 4.505 0 0 1-4.5-4.5zm2.25 0c0 1.24 1.01 2.25 2.25 2.25S8.55 5.74 8.55 4.5 7.54 2.25 6.3 2.25 4.05 3.26 4.05 4.5z" fill="#fff"/><path d="M12.27 8.735a1.113 1.113 0 0 0-1.59 0 6.137 6.137 0 0 1-8.758 0 1.113 1.113 0 0 0-1.592 0 1.154 1.154 0 0 0 0 1.616 8.343 8.343 0 0 0 5.006 2.442l-3.21 3.257a1.153 1.153 0 0 0 0 1.615 1.114 1.114 0 0 0 1.593 0l2.58-2.62 2.582 2.62a1.114 1.114 0 0 0 1.592 0c.44-.447.44-1.168 0-1.615l-3.21-3.257a8.343 8.343 0 0 0 5.007-2.442c.44-.446.44-1.17 0-1.616z" fill="#fff"/></svg>