<svg width="26" height="26" viewBox="0 0 26 26" fill="none" xmlns="http://www.w3.org/2000/svg"><path d="M17.655 21.613l-1.001-3.755c-.2-.747-.993-1.185-1.767-.977l-1.891.509a37.214 37.214 0 0 1-.16-.268c-.514-.857-1.217-2.03-1.676-3.752-.46-1.726-.435-3.097-.418-4.099.002-.106.005-.208.005-.306l1.269-.34.624-.169c.775-.208 1.242-.986 1.043-1.733l-1.001-3.757c-.2-.746-.992-1.184-1.767-.976l-1.06.289.007.029c-.39.157-.77.38-1.115.657a4.683 4.683 0 0 0-.818.848C6.11 6.241 5.922 9.312 7.282 14.41c1.88 7.048 5.671 8.786 5.836 8.86.36.154.731.26 1.134.322.434.066.873.068 1.289.01l.007.02 1.064-.274c.774-.209 1.242-.987 1.043-1.735z" fill="#fff"/></svg>