<svg width="27" height="29" viewBox="0 0 27 29" fill="none" xmlns="http://www.w3.org/2000/svg"><path d="M5.197 5.857c4.12-3.944 10.288-4.005 14.466-.404l-3.312.133c-.427.018-.758.392-.74.844.016.44.358.784.769.784h.028l5.084-.199c.416-.018.741-.374.741-.814v-.096l-.188-5.32c-.017-.453-.376-.802-.798-.784-.427.018-.758.392-.74.844l.119 3.336a12.132 12.132 0 0 0-7.341-2.974C9.91 1.026 6.667 2.25 4.165 4.651.722 7.951-.737 12.969.358 17.745a.776.776 0 0 0 .746.622.64.64 0 0 0 .183-.024c.41-.109.667-.55.564-.984-.958-4.198.32-8.607 3.346-11.502zm20.531 5.397a.8.8 0 0 0-.966-.597.816.816 0 0 0-.587.983c1.002 4.199-.332 8.608-3.479 11.503a11.421 11.421 0 0 1-15.137.326l3.485-.32a.81.81 0 0 0 .723-.887.8.8 0 0 0-.871-.735l-5.27.482a.81.81 0 0 0-.722.887l.474 5.362a.804.804 0 0 0 .794.742c.024 0 .047 0 .071-.006a.81.81 0 0 0 .723-.887l-.284-3.263a12.94 12.94 0 0 0 8.274 2.968c3.265 0 6.371-1.219 8.813-3.463 3.58-3.299 5.097-8.311 3.96-13.095z" fill="#fff"/></svg>