<svg width="167" height="202" viewBox="0 0 167 202" fill="none" xmlns="http://www.w3.org/2000/svg"><path fill-rule="evenodd" clip-rule="evenodd" d="M92.862 42.107a8.495 8.495 0 0 0-8.935-4.114c-.058-.158-.075-.324-.162-.475-7.832-13.565-25.05-18.34-38.38-10.645-13.33 7.696-17.805 24.996-9.973 38.562.087.151.222.248.33.377a8.495 8.495 0 0 0-.904 9.795 8.513 8.513 0 0 0 8.644 4.178l29.708 62.25c3.134 5.428 10.02 7.338 15.353 4.258l38.682-22.333c5.334-3.079 7.123-9.997 3.868-15.617l-38.934-56.66a8.513 8.513 0 0 0 .703-9.576z" fill="#fff" filter="url(#a)"/><path d="M78.67 85.938L85.49 82c1.256-.725 1.65-2.391.88-3.725-.77-1.334-2.41-1.826-3.666-1.1l-6.82 3.938c-5.015 2.895-6.595 9.577-3.522 14.9 3.073 5.322 9.65 7.295 14.665 4.4 2.506-1.447 5.796-.46 7.332 2.2 1.536 2.659.746 6.002-1.76 7.449L85.778 114c-1.257.725-1.651 2.391-.881 3.725.77 1.333 2.41 1.825 3.666 1.1l6.82-3.938c5.015-2.895 6.595-9.577 3.522-14.9-3.073-5.322-9.65-7.295-14.665-4.4-2.506 1.447-5.796.46-7.332-2.2-1.536-2.66-.746-6.002 1.76-7.45zm7.614-37.02L42.93 73.948c-1.329.767-2.98.4-3.684-.819-.704-1.219-.196-2.832 1.133-3.6L83.733 44.5c1.328-.767 2.98-.4 3.684.819.704 1.22.195 2.833-1.133 3.6zm-38.4-4.753a2.5 2.5 0 1 0-2.5-4.33 2.5 2.5 0 0 0 2.5 4.33zm10-6a2.5 2.5 0 1 0-2.5-4.33 2.5 2.5 0 0 0 2.5 4.33z" fill="#E2D5E4"/><defs><filter id="a" x="-13.628" y=".123" width="180.524" height="201.753" filterUnits="userSpaceOnUse" color-interpolation-filters="sRGB"><feFlood flood-opacity="0" result="BackgroundImageFix"/><feColorMatrix in="SourceAlpha" values="0 0 0 0 0 0 0 0 0 0 0 0 0 0 0 0 0 0 127 0"/><feOffset dy="20"/><feGaussianBlur stdDeviation="15"/><feColorMatrix values="0 0 0 0 0.886275 0 0 0 0 0.835294 0 0 0 0 0.894118 0 0 0 1 0"/><feBlend in2="BackgroundImageFix" result="effect1_dropShadow"/><feBlend in="SourceGraphic" in2="effect1_dropShadow" result="shape"/></filter></defs></svg>