<svg width="222" height="273" viewBox="0 0 222 273" fill="none" xmlns="http://www.w3.org/2000/svg"><path fill-rule="evenodd" clip-rule="evenodd" d="M163.994 92.317c15.643-27.095 14.963-55.783-1.549-65.317-16.513-9.534-41.698 4.222-57.341 31.317-9.235 15.996-13.108 33.611-10.355 47.12 1.114 5.444.11 11.016-2.82 15.693l-38.154 61.006c-2.425 3.885-3.169 8.459-2.091 12.885 1.077 4.426 3.836 8.114 7.76 10.38 3.926 2.266 8.5 2.812 12.871 1.532 4.372-1.28 7.962-4.211 10.114-8.254l33.757-63.55c2.583-4.872 6.908-8.527 12.178-10.285 13.076-4.37 26.395-16.531 35.63-32.527z" fill="#fff" filter="url(#a)"/><path d="M147.434 78.378c-2.063-1.191-4.683-.509-5.858 1.526-4.6 7.968-10.22 14.755-15.409 18.626-1.891 1.405-2.256 4.075-.812 5.968.358.474.8.854 1.288 1.136 1.451.838 3.315.792 4.727-.257 6.171-4.593 12.445-12.11 17.672-21.163 1.174-2.035.455-4.645-1.608-5.836z" fill="#E2D5E4"/><defs><filter id="a" x="0" y="0" width="221.89" height="272.401" filterUnits="userSpaceOnUse" color-interpolation-filters="sRGB"><feFlood flood-opacity="0" result="BackgroundImageFix"/><feColorMatrix in="SourceAlpha" values="0 0 0 0 0 0 0 0 0 0 0 0 0 0 0 0 0 0 127 0"/><feOffset dy="20"/><feGaussianBlur stdDeviation="15"/><feColorMatrix values="0 0 0 0 0.886275 0 0 0 0 0.835294 0 0 0 0 0.894118 0 0 0 1 0"/><feBlend in2="BackgroundImageFix" result="effect1_dropShadow"/><feBlend in="SourceGraphic" in2="effect1_dropShadow" result="shape"/></filter></defs></svg>