<svg width="26" height="20" viewBox="0 0 26 20" fill="none" xmlns="http://www.w3.org/2000/svg"><path d="M5 2h16V0H5v2zm19 3v10h2V5h-2zm-3 13H5v2h16v-2zM2 15V5H0v10h2zm3 3a3 3 0 0 1-3-3H0a5 5 0 0 0 5 5v-2zm19-3a3 3 0 0 1-3 3v2a5 5 0 0 0 5-5h-2zM21 2a3 3 0 0 1 3 3h2a5 5 0 0 0-5-5v2zM5 0a5 5 0 0 0-5 5h2a3 3 0 0 1 3-3V0zM0 6c0 1.375.471 2.483 1.346 3.307.84.791 1.973 1.247 3.184 1.52 2.4.542 5.542.453 8.501.36 3.048-.095 5.913-.194 8.025.224 1.048.207 1.79.522 2.256.928.424.37.688.869.688 1.661h2c0-1.333-.486-2.396-1.375-3.17-.845-.735-1.98-1.143-3.18-1.381-2.389-.473-5.524-.353-8.476-.261-3.04.095-5.9.162-7.999-.312-1.04-.235-1.78-.58-2.253-1.025C2.279 7.44 2 6.875 2 6H0z" fill="#DF2527"/></svg>