<svg width="40" height="38" viewBox="0 0 40 38" fill="none" xmlns="http://www.w3.org/2000/svg"><path d="M14.454 13.257l17.387-4.659 2.847 10.625a1 1 0 0 1-.707 1.225L18.526 24.59a1 1 0 0 1-1.225-.707l-2.847-10.625z" stroke="#DF2527" stroke-width="2"/><path d="M11.746 10.877l21.25-5.694 1.035 3.863-21.25 5.694-1.035-3.863zm9.987 2.5l3.864-1.035 1.035 3.863-2.45-1.414-1.413 2.45-1.036-3.864z" fill="#DF2527"/><path d="M8.52 6.565l-1.932.517-4.347 1.165.518 1.932 4.347-1.165 5.694 21.25.517 1.933 1.932-.518 21.734-5.824-.518-1.931-21.733 5.823-5.694-21.25-.518-1.932z" fill="#DF2527"/><circle cx="14.024" cy="30.972" r="4" transform="rotate(-15 14.024 30.972)" fill="#fff" stroke="#DF2527" stroke-width="2"/><circle cx="2.63" cy="9.696" r="1.5" transform="rotate(-15 2.63 9.696)" fill="#DF2527"/><circle cx="36.594" cy="24.406" r="1.5" transform="rotate(-15 36.594 24.406)" fill="#DF2527"/></svg>