<svg width="20" height="11" viewBox="0 0 20 11" fill="none" xmlns="http://www.w3.org/2000/svg"><path d="M16.83 6.994c.649.63 1.334 1.222 1.916 1.915.257.308.5.626.686.983.264.508.025 1.067-.433 1.098l-2.85-.002c-.734.061-1.32-.233-1.813-.732-.395-.4-.76-.825-1.14-1.238a2.69 2.69 0 0 0-.512-.453c-.389-.25-.726-.174-.949.23-.226.41-.277.864-.3 1.32-.03.668-.233.843-.907.873-1.44.068-2.807-.149-4.076-.87-1.12-.637-1.988-1.536-2.743-2.554C2.238 5.584 1.11 3.406.099 1.168-.13.664.038.394.597.384a77.79 77.79 0 0 1 2.79-.001c.377.005.627.22.773.575A17.153 17.153 0 0 0 6.05 4.44c.206.289.416.577.714.78.33.225.582.15.738-.215.098-.232.142-.482.164-.73.073-.855.083-1.708-.046-2.56-.08-.532-.38-.876-.914-.976-.272-.051-.232-.152-.1-.307C6.835.166 7.05 0 7.48 0h3.22c.506.1.619.326.688.833l.003 3.555c-.005.196.099.778.454.908.285.093.473-.134.643-.313.771-.813 1.321-1.774 1.813-2.77.218-.437.406-.892.587-1.346.135-.337.346-.503.728-.495l3.099.003c.092 0 .185 0 .274.016.522.088.665.312.504.819-.254.795-.749 1.457-1.232 2.123-.517.71-1.07 1.397-1.582 2.112-.47.653-.433.982.151 1.55z" fill="#141312"/></svg>